<svg class="animated" id="freepik_stories-coven" xmlns="http://www.w3.org/2000/svg" viewBox="0 0 500 500" version="1.1" xmlns:xlink="http://www.w3.org/1999/xlink" xmlns:svgjs="http://svgjs.com/svgjs"><style>svg#freepik_stories-coven:not(.animated) .animable {opacity: 0;}svg#freepik_stories-coven.animated #freepik--Pot--inject-232 {animation: 1s 1 forwards cubic-bezier(.36,-0.01,.5,1.38) fadeIn;animation-delay: 0s;}svg#freepik_stories-coven.animated #freepik--Pumpkin--inject-232 {animation: 1.5s Infinite  linear floating;animation-delay: 0s;}svg#freepik_stories-coven.animated #freepik--Skulls--inject-232 {animation: 1.5s Infinite  linear floating;animation-delay: 0s;}svg#freepik_stories-coven.animated #freepik--Sparkles--inject-232 {animation: 1.5s Infinite  linear heartbeat;animation-delay: 0s;}            @keyframes fadeIn {                0% {                    opacity: 0;                }                100% {                    opacity: 1;                }            }                    @keyframes floating {                0% {                    opacity: 1;                    transform: translateY(0px);                }                50% {                    transform: translateY(-10px);                }                100% {                    opacity: 1;                    transform: translateY(0px);                }            }                    @keyframes heartbeat {                0% {                    transform: scale(1);                }                10% {                    transform: scale(1.1);                }                30% {                    transform: scale(1);                }                40% {                    transform: scale(1);                }                50% {                    transform: scale(1.1);                }                60% {                    transform: scale(1);                }                100% {                    transform: scale(1);                }            }        </style><g id="freepik--Floor--inject-232" class="animable" style="transform-origin: 250px 349.35px;"><ellipse id="freepik--floor--inject-232" cx="250" cy="349.35" rx="243.41" ry="132.21" style="fill: rgb(245, 245, 245); transform-origin: 250px 349.35px;" class="animable"></ellipse></g><g id="freepik--Shadows--inject-232" class="animable" style="transform-origin: 250.074px 345.74px;"><ellipse id="freepik--Shadow--inject-232" cx="421.8" cy="306.05" rx="39.42" ry="22.76" style="fill: rgb(224, 224, 224); transform-origin: 421.8px 306.05px;" class="animable"></ellipse><ellipse id="freepik--shadow--inject-232" cx="350.35" cy="378.39" rx="51.61" ry="29.8" style="fill: rgb(224, 224, 224); transform-origin: 350.35px 378.39px;" class="animable"></ellipse><ellipse id="freepik--shadow--inject-232" cx="159.43" cy="378.39" rx="51.61" ry="29.8" style="fill: rgb(224, 224, 224); transform-origin: 159.43px 378.39px;" class="animable"></ellipse><ellipse id="freepik--shadow--inject-232" cx="250" cy="336.93" rx="51.61" ry="29.8" style="fill: rgb(224, 224, 224); transform-origin: 250px 336.93px;" class="animable"></ellipse><g id="freepik--shadow--inject-232"><ellipse cx="453.43" cy="337.1" rx="20.16" ry="11.64" style="fill: rgb(224, 224, 224); transform-origin: 453.43px 337.1px; transform: rotate(-0.18deg);" class="animable"></ellipse></g><g id="freepik--shadow--inject-232"><ellipse cx="66.67" cy="308.24" rx="19.96" ry="34.58" style="fill: rgb(224, 224, 224); transform-origin: 66.67px 308.24px; transform: rotate(-89.82deg);" class="animable"></ellipse></g><path id="freepik--shadow--inject-232" d="M60.93,328.31c7.86,4.57,7.83,11.94,0,16.46s-20.66,4.49-28.52-.09-7.84-11.94,0-16.46S53.07,323.74,60.93,328.31Z" style="fill: rgb(224, 224, 224); transform-origin: 46.6681px 336.497px;" class="animable"></path></g><g id="freepik--Clouds--inject-232" class="animable" style="transform-origin: 396.942px 73.5524px;"><path id="freepik--Cloud--inject-232" d="M384.59,49.9c1.41,1,3.44.85,5.2.6,2.06-.29,4.4-.61,6,.68a17.18,17.18,0,0,1,2,2.46c1.91,2.2,5.49.58,7.08,3.6.23.43.24,1.83.81,2s1.77-.78,2.37-.88a20.29,20.29,0,0,1,5.87.24,6.81,6.81,0,0,1,4.51,2.67c.52.72,1,1.63,1.87,1.82a2.82,2.82,0,0,0,1.51-.2,18.32,18.32,0,0,1,5.22-1.24c1.81,0,3.76.76,4.49,2.35.1.23.22.5.46.55s.47-.14.66-.31A5.42,5.42,0,0,1,437.48,63a2.67,2.67,0,0,1,1.44.79c.5.61.51,1.5,1,2.11.87,1.07,2.58.75,3.93.39,1.8-.48,3.89-.8,5.37.29.4.3.73.68,1.15,1,1.13.73,2.62.51,4,.39.9-.08,11.36.31,11.21,1.19s-2.78.69-3.37.74c-.88.07-1.73.26-2.61.28a7.19,7.19,0,0,0-2.66.19c-.53.23-.89.69-1.49.88a6.77,6.77,0,0,1-4.19-.33c-1.55-.53-3.22-1.42-4.92-1.36a7.7,7.7,0,0,0-2.28.82,8.13,8.13,0,0,1-4.71.06c-.89-.22-2.27-.88-3.24-.63-.55.14-1.14.68-1.71.89a12,12,0,0,1-2.29.57c-2.79.37-5.53-1.16-8.17-1.83-3.36-.84-5.23-.12-7.74,1.86a8.1,8.1,0,0,1-7.59,1.15,23.14,23.14,0,0,0-2.27-.88,8.88,8.88,0,0,0-5.87.42,13.87,13.87,0,0,1-3.35,1.64c-4,.91-7.76-3.75-11.67-2.59a10.43,10.43,0,0,0-2.22,1.1,34.59,34.59,0,0,1-6.78,2.62,3.92,3.92,0,0,1-1.31.26,3.81,3.81,0,0,1-1.72-.62,17.6,17.6,0,0,0-3.16-1.58,4.26,4.26,0,0,0-3.43.19,9,9,0,0,1-1.63,1c-1.58.47-2.94-1.32-4.57-1.52s-3,1.09-4.62,1-3.31-1-5.08-1.08c-4-.21-8,.82-11.92-.1a20.21,20.21,0,0,0-4.52-.89c-2.83,0-5.56,1.82-8.33,1.22a.82.82,0,0,1-.31-.11c-.3-.22-.16-.75.16-.94a2,2,0,0,1,1.1-.16,9.34,9.34,0,0,0,3.43-.54,35.09,35.09,0,0,1,3.39-1.34c3.64-.88,7.69,1.7,11.09.12a24,24,0,0,1,2.68-1.46c1.95-.64,4.1.46,6.1,0a7.2,7.2,0,0,0,3.8-3,13.18,13.18,0,0,1,3.34-3.59c1.41-.84,3.49-.87,4.48.44a13.19,13.19,0,0,1,1.41-3.77,4.46,4.46,0,0,1,3.22-2.2,3.13,3.13,0,0,0,1.7-.32,2.46,2.46,0,0,0,.64-1.71,7.64,7.64,0,0,1,3.42-5.25,14.38,14.38,0,0,1,4-1.74,3.22,3.22,0,0,1,2.84.58,17.89,17.89,0,0,1,1.3,1.68A3.67,3.67,0,0,0,384.59,49.9Z" style="fill: rgb(224, 224, 224); transform-origin: 395.633px 60.9886px;" class="animable"></path><path id="freepik--cloud--inject-232" d="M420.22,86.67l.27.14c1.44.66,3.12.1,4.71.12a6.53,6.53,0,0,1,4.18,1.61c.68.61,1.22,1.36,1.88,2a7.92,7.92,0,0,0,6.44,2.09,18.64,18.64,0,0,1,2.21-.31c1.87,0,3.49,1.21,5.28,1.75,3.92,1.2,8.18-1,12.22-.21,2.25.42,4.28,1.72,6.56,2a35.09,35.09,0,0,1,4.23.3c0,.82-3,1-3.65,1.06a11.43,11.43,0,0,1-4.49-.66,25.6,25.6,0,0,0-2.73-1c-2.3-.54-4.6.33-6.63,1.35a14.08,14.08,0,0,1-2.65.72c-1.19.34-2.31.93-3.5,1.28a11.18,11.18,0,0,1-6.91.17c-1.34-.47-2.54-1.31-3.92-1.67-2.31-.6-4.75.26-6.86,1.38-1.3.69-2.67,1.52-4.13,1.33-2.05-.27-3.33-2.38-5.22-3.23-2.48-1.13-5.54-.18-7.89.79a26.55,26.55,0,0,1-4.13,1.43,8.74,8.74,0,0,1-4.34,0,24.4,24.4,0,0,0-3.17-1c-1.3-.19-2.62.23-3.92,0a8.89,8.89,0,0,1-1.35-.34,9.64,9.64,0,0,0-3.36-.52.36.36,0,0,1-.29-.06A.3.3,0,0,1,389,97a.82.82,0,0,1,.55-.58,2.25,2.25,0,0,1,.82-.08c1.71,0,3.41.12,5.11.27A12.79,12.79,0,0,0,400,96c1.07-.31,2.08-.75,3.17-1a4.33,4.33,0,0,0,2.35-1.85c.88-1.14,1.84-2.61,3.43-2.71a2.29,2.29,0,0,0,.91-.13c.41-.22.53-.74.66-1.18a8.44,8.44,0,0,1,3.9-4.59,3.23,3.23,0,0,1,3.88.43A12.51,12.51,0,0,0,420.22,86.67Z" style="fill: rgb(224, 224, 224); transform-origin: 428.6px 92.1152px;" class="animable"></path></g><g id="freepik--Moon--inject-232" class="animable" style="transform-origin: 82.5px 64.04px;"><g id="freepik--moon--inject-232" class="animable" style="transform-origin: 82.5px 64.04px;"><g id="els8r2o50z8k8"><circle cx="82.5" cy="64.04" r="28.89" style="fill: rgb(146, 227, 169); transform-origin: 82.5px 64.04px; transform: rotate(-29.29deg);" class="animable"></circle></g><g id="ely6lzvwqx3ho"><circle cx="82.5" cy="64.04" r="28.89" style="fill: rgb(255, 255, 255); opacity: 0.65; transform-origin: 82.5px 64.04px; transform: rotate(-29.29deg);" class="animable"></circle></g><g id="elr8creo8zm7"><path d="M91,74.82c-.56-.07-1.25,0-1.52-.53s0-1-.21-1.4c-.47-.85-2-.06-2.66-.82a2.93,2.93,0,0,1-.33-.79,1.63,1.63,0,0,0-2.67-.34,1.11,1.11,0,0,0-.23.72c.08.76,1.07,1,1.72,1.39a1.82,1.82,0,0,1,.52,2.5,1.46,1.46,0,0,1-2.37-.16c-.21-.45-.14-1-.31-1.45a1.74,1.74,0,0,0-2.13-1,2.2,2.2,0,0,0-1.4,2,9,9,0,0,1,0,1.16,1.7,1.7,0,0,1-2.17,1.26,1.17,1.17,0,0,1-.78-.91c-.05-.56.42-1,.78-1.46.65-.8.92-2.13.11-2.78a2.43,2.43,0,0,0-2-.19,3.37,3.37,0,0,1-2.1.09c-.66-.28-1-1.32-.37-1.7.31-.19.75-.13,1-.36.45-.34.26-1.07-.11-1.5s-.86-.79-1-1.34a1.48,1.48,0,0,1,.62-1.5A3,3,0,0,1,75,65.25a2.07,2.07,0,0,1,1.76.54c.58.69.24,1.73.34,2.62a3.39,3.39,0,0,0,3.57,2.68,2.57,2.57,0,0,0,1.8-.71,1.39,1.39,0,0,0,.14-1.81c-.31-.36-.87-.53-1-1-.21-.68.71-1.19,1.43-1.13s1.46.39,2.12.09c1.06-.48.89-2.12.15-3a2.66,2.66,0,0,0-3.19-.94c-.45.27-.77.71-1.22,1s-1.17.22-1.34-.28.5-1.06.66-1.66a1.19,1.19,0,0,0-.92-1.35,1.87,1.87,0,0,0-1.66.55,7,7,0,0,1-.86.86.87.87,0,0,1-1.11,0c-.54-.62.54-1.44.57-2.27s-.53-1.09-1.23-1.14-1.7.12-2.2.06c-1.66-.22-1.59-2.21.08-2.27,1,0,2.12.48,3.1.09a1.66,1.66,0,0,0,.26-2.78,2.66,2.66,0,0,1-.71-.47,1.84,1.84,0,0,1-.22-1.17,3.19,3.19,0,0,0-5.12-2.43c-.5.38-.86.9-1.32,1.32a2.06,2.06,0,0,1-1.68.6,3.36,3.36,0,0,0-1.65.4A1.47,1.47,0,0,0,64.77,53a4.3,4.3,0,0,0,.7,1.27c.23.43.26,1.07-.17,1.29a.89.89,0,0,1-.43.08,2.33,2.33,0,0,1-1-.23c-.41-.18-.86-.48-1.25-.28s-.43.77-.28,1.19c.23.63.89,1.49-.09,1.81a1.88,1.88,0,0,1-1.68-.22,1.39,1.39,0,0,1-.49-1.57c.23-.56.82-.85,1.3-1.22a2.66,2.66,0,0,0,1.06-1.68,1.65,1.65,0,0,0-.83-1.7,2,2,0,0,0-2.35.86c-.54.72-.82,1.61-1.31,2.37a28.92,28.92,0,0,1-2.46,2.63A9,9,0,0,0,53.8,60.8a29.68,29.68,0,0,0-.18,3.67,28.78,28.78,0,0,0,3.51,13.39,4.08,4.08,0,0,1,1,.31,9.41,9.41,0,0,0,1.76,1c1,.24,2.12-.48,3,0,1.44.75.73,3.6,2.3,4,.63.17,1.33-.22,2,0s.86,1,1.11,1.58.75,1.29,1.41,1.17.84-.74.88-1.31A6.86,6.86,0,0,1,70.7,83c.19-.53.86-1,1.33-.64s.27,1.31.73,1.77,1.54-.16,1.75-.93.08-1.65.55-2.3a1.75,1.75,0,0,1,2.42-.28A2.26,2.26,0,0,1,78.11,83c-.16.44-.43.83-.6,1.26a2.6,2.6,0,0,0,.69,2.91,2.13,2.13,0,0,0,2.87-.2c.23-.28.37-.61.59-.89a2.28,2.28,0,0,1,2.57-.74,5.35,5.35,0,0,0,1.25.5A1.51,1.51,0,0,0,87,84.55a2.32,2.32,0,0,0-.89-2c-.49-.41-1.14-.72-1.38-1.32a1.26,1.26,0,0,1,.6-1.51,1.23,1.23,0,0,1,1.55.48c.23.39.22.89.44,1.29a1.34,1.34,0,0,0,2.37-.38c.1-.59-.18-1.3.23-1.73s1.46,0,2.22-.07a1.66,1.66,0,0,0,1.2-1.62A2.86,2.86,0,0,0,91,74.82ZM108.26,51l-.23.16a4.68,4.68,0,0,1-2.54.75,1.13,1.13,0,0,1-.75-.21,1,1,0,0,1,.08-1.28,10.48,10.48,0,0,1,1.12-.87,2.64,2.64,0,0,0,.76-1.23,28.9,28.9,0,0,0-13-10.87h0a2.54,2.54,0,0,0-1,1.77c0,.75.85,1.28.73,2-.07.39-.47.62-.71.94a1.29,1.29,0,0,0,.38,1.8c.85.5,2.08-.11,2.89.47.34.25.51.67.82,1a1.6,1.6,0,0,0,2.17,0c.27-.26.45-.64.8-.79.54-.23,1.11.19,1.54.59a3.2,3.2,0,0,1,1.1,1.5,1.12,1.12,0,0,1-.87,1.4,2.11,2.11,0,0,1-1.07-.48c-.66-.39-1.72-.39-2,.33-.37,1,1.41,2.06.87,3a2,2,0,0,1-2.93-2.13c.14-.65.59-1.34.25-1.91s-1.31-.47-2-.18-1.5.61-2,.14-.47-1.44-1.11-1.69-1.14.38-1.17,1A2.9,2.9,0,0,0,91,47.72a2.69,2.69,0,0,1,.57,1.63,1.64,1.64,0,0,1-1.93,1.27,2.56,2.56,0,0,1-1.81-1.69,7,7,0,0,0-.4-1.11,4.58,4.58,0,0,0-2.13-1.47c-.78-.4-1.58-1.13-1.42-2,.06-.39.32-.76.25-1.14-.12-.58-.94-.74-1.43-.43a2.73,2.73,0,0,0-.94,1.45c-1,.27-2-.59-2.67-1.44s-1.3-1.87-2.35-2.11a3.14,3.14,0,0,0-2.52.8,20.54,20.54,0,0,1-2.13,1.72,32.53,32.53,0,0,1-3.64,1.25A6,6,0,0,0,64.88,49a.75.75,0,0,0,.09.61.69.69,0,0,0,.59.17c2.1-.15,3.29-2.87,5.38-3.07a13.27,13.27,0,0,1,2.25.26A1.76,1.76,0,0,0,75.08,46c.08-.24.08-.5.14-.75a2,2,0,0,1,1.56-1.39,4,4,0,0,1,2.17.27c.77.29,1.62,1,1.32,1.77s-1.21.74-2,.81a2.84,2.84,0,0,0-1.56.53,1.42,1.42,0,0,0-.54,1.48c.39,1.21,2.49,1.11,2.87,2.33.2.65-.23,1.33-.15,2,.14,1.24,1.83,1.83,2,3.06s-.87,2.36-.11,3.13a1.81,1.81,0,0,0,1.06.39,5.42,5.42,0,0,0,3.36-.45,2.31,2.31,0,0,0,1-2.94c-.35-.6-1-1-1.3-1.61a1.39,1.39,0,0,1,2.45-1.28c.67,1-.17,2.44.31,3.55a2.28,2.28,0,0,0,.93,1,3.8,3.8,0,0,0,3.79.06,8.18,8.18,0,0,1,2.1-1.24c.8-.19,1.84.52,1.52,1.27-.16.38-.58.57-.86.86a1.47,1.47,0,0,0,1.9,2.22c.72-.51,1.23-1.71,2.06-1.41.67.25.59,1.23.94,1.85a1.5,1.5,0,0,0,2.15.38,1.77,1.77,0,0,0,.37-2.23c-.44-.74-1.37-1.17-1.61-2a1.4,1.4,0,0,1,2.35-1.38,4.92,4.92,0,0,1,.75,1.68,2.39,2.39,0,0,0,1.36,1.44,1.51,1.51,0,0,0,1.79-.6c.19-.37.2-.84.46-1.16.44-.52,1.27-.37,1.9-.13a4.59,4.59,0,0,0,1.08.31A29,29,0,0,0,108.26,51Z" style="fill: rgb(146, 227, 169); opacity: 0.2; transform-origin: 82.1288px 62.5415px;" class="animable"></path></g></g></g><g id="freepik--Pot--inject-232" class="animable" style="transform-origin: 421.8px 246.704px;"><g id="freepik--Cauldron--inject-232" class="animable" style="transform-origin: 421.8px 246.704px;"><g id="freepik--pumpkin-basket--inject-232" class="animable" style="transform-origin: 421.8px 246.704px;"><g id="freepik--pumpkin-basket--inject-232" class="animable" style="transform-origin: 421.8px 246.704px;"><path d="M453.43,310.78a2.19,2.19,0,0,0-4.37-.12c-.47-.28-.58-1.14,1.37-3.31,3.17-3.56,2.52-5.58-.41-7.43a11.83,11.83,0,0,0-5.54,5.76c2.65,1,.53,3.66,1,5.66.66,3,6.17,2.35,7.18,1.12h0A2.19,2.19,0,0,0,453.43,310.78Z" style="fill: rgb(38, 50, 56); transform-origin: 448.955px 306.706px;" id="elh8kornas4pe" class="animable"></path><path d="M390.17,310.78a2.19,2.19,0,0,1,4.37-.12c.47-.28.58-1.14-1.37-3.31-3.17-3.56-2.52-5.58.41-7.43a11.83,11.83,0,0,1,5.54,5.76c-2.65,1-.53,3.66-1,5.66-.66,3-6.17,2.35-7.18,1.12h0A2.19,2.19,0,0,1,390.17,310.78Z" style="fill: rgb(38, 50, 56); transform-origin: 394.645px 306.706px;" id="eldz6mor572d7" class="animable"></path><path d="M435.24,245.23c7,2,10.73,4,12.95,7s.33,4.92,1.34,6.66,5.91,6.2,9.41,17.15c4.25,13.3-5.8,35.22-37.14,35.22S380.41,289.3,384.66,276c3.5-10.95,8.4-15.41,9.41-17.15s-.88-3.7,1.34-6.66,5.91-5,12.95-7A55.32,55.32,0,0,1,435.24,245.23Z" style="fill: rgb(69, 90, 100); transform-origin: 421.8px 277.406px;" id="eldrpaocrqds" class="animable"></path><g id="eljillpt6y6i"><path d="M436.66,309.27a53.85,53.85,0,0,1-14.86,2c-31.34,0-41.39-21.92-37.14-35.22,3.5-10.95,8.4-15.41,9.41-17.15a2.51,2.51,0,0,0,.31-1.24v0c.06,6.65,5.41,9.6,12.76,13.48C400.22,282.54,399.73,314,436.66,309.27Z" style="opacity: 0.1; transform-origin: 410.197px 284.465px;" class="animable"></path></g><ellipse cx="421.58" cy="257.52" rx="23.36" ry="11.72" style="fill: rgb(55, 71, 79); transform-origin: 421.58px 257.52px;" id="elkb6uhx5l3l8" class="animable"></ellipse><path d="M405.06,261.59a18.35,18.35,0,0,0-3.33,2.11,18.89,18.89,0,0,0,3.33,2.1c9.12,4.58,23.91,4.58,33,0a19.16,19.16,0,0,0,3.32-2.1,18.6,18.6,0,0,0-3.32-2.11C429,257,414.18,257,405.06,261.59Z" style="fill: rgb(146, 227, 169); transform-origin: 421.555px 263.691px;" id="elph5zzhgh0yn" class="animable"></path><path d="M394,261.36a11.33,11.33,0,0,0,2,3.33c.39.53.87,1,1.31,1.46s.95.9,1.46,1.3a27.13,27.13,0,0,0,6.77,3.94,43.69,43.69,0,0,0,30.67,0,27.24,27.24,0,0,0,6.76-3.94c.51-.4,1-.87,1.46-1.3s.92-.93,1.31-1.46a11.33,11.33,0,0,0,2-3.33,12.6,12.6,0,0,1-2.37,3c-.44.45-.95.83-1.42,1.25s-1,.76-1.53,1.09a29.71,29.71,0,0,1-6.73,3.27,38.63,38.63,0,0,1-7.29,1.71,54.27,54.27,0,0,1-15,0,38,38,0,0,1-7.28-1.71,29.51,29.51,0,0,1-6.73-3.27c-.54-.32-1-.73-1.53-1.09s-1-.8-1.42-1.25A12.6,12.6,0,0,1,394,261.36Z" style="fill: rgb(55, 71, 79); transform-origin: 420.87px 267.765px;" id="eltgj5lmhfra7" class="animable"></path><g id="elpn802bc6nr"><path d="M452.87,207c-9.43-9-27-8.17-30.52-12.36-5.15-6.17,2.52-15.22,8.25-8.23,2.22-4.9-8.53-10.55-15.67-2.31s-3.84,17.31,9.41,25c12,6.91,4.73,16.89-7.14,22.16-12.41,5.51-20.67,16.17-19,26.4h0c0,3,2.32,5.93,6.84,8.19,9.12,4.58,23.91,4.58,33,0,4.94-2.48,7.2-5.79,6.78-9h0S443,244,451.5,234.56C459.29,225.94,462.31,216,452.87,207Z" style="fill: rgb(146, 227, 169); opacity: 0.2; transform-origin: 428.367px 224.601px;" class="animable"></path></g><g id="elr5blpjmnn28"><path d="M409,193.17c-.05,5.82,1.73,9.19,6.87,12.51C411,205.44,403.14,202.25,409,193.17Z" style="fill: rgb(146, 227, 169); opacity: 0.2; transform-origin: 411.393px 199.425px;" class="animable"></path></g></g></g></g></g><g id="freepik--Pumpkin--inject-232" class="animable" style="transform-origin: 57.0425px 278.739px;"><g id="freepik--Leaves--inject-232" class="animable" style="transform-origin: 28.403px 295.944px;"><path d="M18.19,285.45a3.44,3.44,0,0,1-1.92-2.69,3.38,3.38,0,0,1,1.31-3,4.85,4.85,0,0,1,1.52,3.06A3.4,3.4,0,0,1,18.19,285.45Z" style="fill: rgb(146, 227, 169); transform-origin: 17.6842px 282.605px;" id="el5am1ad6723y" class="animable"></path><path d="M18.18,283c.1,3,1.54,6.13,2.83,8.79a38.83,38.83,0,0,0,4.75,7.57,33.12,33.12,0,0,0,8,6.94,43.49,43.49,0,0,0,4.68,2.59c1.87.91,3.86,1.59,5.69,2.55.4.21,0,.76-.39.68a35.46,35.46,0,0,1-10.24-4.69,33.81,33.81,0,0,1-8.68-7.53c-3.75-4.69-7-10.87-6.8-17,0-.13.17,0,.17.08Z" style="fill: rgb(55, 71, 79); transform-origin: 31.1536px 297.486px;" id="elig491hbdt5" class="animable"></path><path d="M28.51,308.12s-1,2.4-4.18,1.48-5-4.62-5-4.62,3.76-.74,5.85-.14A4.06,4.06,0,0,1,28.51,308.12Z" style="fill: rgb(146, 227, 169); transform-origin: 23.92px 307.208px;" id="ela1j2fna3obj" class="animable"></path><path d="M22,300.63a3.65,3.65,0,0,1-3.59.3c-2.08-.9-2.54-4-2.54-4s3-.91,4.84.46A3.16,3.16,0,0,1,22,300.63Z" style="fill: rgb(146, 227, 169); transform-origin: 18.9683px 298.95px;" id="elyf9xx8cf4um" class="animable"></path><path d="M28,295.64a3.64,3.64,0,0,1-2-3c-.23-2.25,2.26-4.16,2.26-4.16s2.27,2.2,2,4.44A3.18,3.18,0,0,1,28,295.64Z" style="fill: rgb(146, 227, 169); transform-origin: 28.1337px 292.06px;" id="el0w5zylisjymi" class="animable"></path><path d="M18.23,293.12a3.47,3.47,0,0,1-3.2,0c-1.83-.85-2.52-3.74-2.52-3.74s2.89-.51,3.93.12S18.23,293.12,18.23,293.12Z" style="fill: rgb(146, 227, 169); transform-origin: 15.37px 291.348px;" id="el048ldv563gy" class="animable"></path><path d="M23.56,281.78a3.19,3.19,0,0,0-1.83,2.14c-.52,1.7.87,3.75.87,3.75S24.55,286,24.76,285,23.56,281.78,23.56,281.78Z" style="fill: rgb(146, 227, 169); transform-origin: 23.1974px 284.725px;" id="elz0gjg4tpj9a" class="animable"></path><path d="M22.62,306.48c.55.19,1.15.31,1.71.46s1.16.28,1.74.4c1.19.23,2.39.39,3.59.51s2.26.19,3.39.23,2.15-.07,3.22,0c.32,0,.21.49,0,.56a9.1,9.1,0,0,1-3.17.2c-1.13,0-2.27-.1-3.41-.22a25,25,0,0,1-3.43-.55c-.66-.16-1.3-.37-1.94-.59a14.13,14.13,0,0,1-1.68-.76c-.07,0-.12-.24,0-.2Z" style="fill: rgb(55, 71, 79); transform-origin: 29.5192px 307.689px;" id="elp6fq81bwhe" class="animable"></path><path d="M18.18,298.45a5.19,5.19,0,0,0,2.05,1.08c.72.27,1.43.57,2.15.83a18.36,18.36,0,0,0,2.28.63l1.39.29a3.9,3.9,0,0,1,1.28.33c.16.1.13.47-.08.49a5.93,5.93,0,0,1-1.45-.17c-.48-.08-1-.14-1.45-.25a18.41,18.41,0,0,1-2.51-.72c-1.38-.49-3-1.07-3.77-2.41-.06-.1,0-.19.11-.1Z" style="fill: rgb(55, 71, 79); transform-origin: 22.739px 300.257px;" id="el8vjm6g7ns83" class="animable"></path><path d="M28.05,291a4.15,4.15,0,0,1,.31.92,11.33,11.33,0,0,1,.15,1.29,14.1,14.1,0,0,1-.14,2.83,13.47,13.47,0,0,1-.66,2.57c-.25.7-.39,1.77-1.13,2.13a.21.21,0,0,1-.31-.14,2.27,2.27,0,0,1,.27-1c.11-.33.21-.67.33-1a17.91,17.91,0,0,0,.66-2.24,17,17,0,0,0,.37-2.46,12.31,12.31,0,0,0,0-1.36c0-.49,0-1-.09-1.49,0-.15.16-.2.22,0Z" style="fill: rgb(55, 71, 79); transform-origin: 27.3992px 295.843px;" id="eljleepj675b" class="animable"></path><path d="M14.66,291.12a14.31,14.31,0,0,0,2.07,1c.65.29,1.29.62,2,.9s1.18.48,1.78.73a5.52,5.52,0,0,1,1.65.86c.19.18,0,.64-.28.53-.65-.26-1.27-.63-1.93-.9s-1.27-.49-1.88-.8-1.15-.59-1.71-.94a14,14,0,0,1-1.71-1.27c-.07-.06-.07-.22.05-.15Z" style="fill: rgb(55, 71, 79); transform-origin: 18.4195px 293.11px;" id="el4zm9gz0rlfo" class="animable"></path><path d="M23.27,284.54a8.32,8.32,0,0,1,.09,1.12,8.93,8.93,0,0,1-.1,1.16,16.13,16.13,0,0,1-.37,2.17,12.29,12.29,0,0,1-.78,2,9,9,0,0,1-1,1.85c-.29.36-.73,0-.47-.36a8.81,8.81,0,0,0,.78-1.64c.25-.59.54-1.17.73-1.78s.3-1.3.47-1.95c.07-.3.14-.6.2-.9a6.91,6.91,0,0,0,.2-1.69c0-.19.19-.15.21,0Z" style="fill: rgb(55, 71, 79); transform-origin: 21.9605px 288.691px;" id="elzp3t553j1ve" class="animable"></path></g><g id="freepik--pumpkin--inject-232" class="animable" style="transform-origin: 65.743px 278.739px;"><path d="M47.93,249.3c9.1,2.16,16.92,6.11,17.06,6.43a112.1,112.1,0,0,1,15.26-8.41c-3.89-2.52-7.45-3.24-15.17-3.06C57,244.46,50.82,245.9,47.93,249.3Z" style="fill: rgb(146, 227, 169); transform-origin: 64.09px 249.982px;" id="elafcekfy5ktj" class="animable"></path><g id="el9w9symzorvt"><path d="M47.93,249.3c9.1,2.16,16.92,6.11,17.06,6.43a112.1,112.1,0,0,1,15.26-8.41c-3.89-2.52-7.45-3.24-15.17-3.06C57,244.46,50.82,245.9,47.93,249.3Z" style="opacity: 0.25; transform-origin: 64.09px 249.982px;" class="animable"></path></g><g id="elimr7ywkijwd"><path d="M55.8,245.27s-1.48.83-.57,1.43,7.35,1.9,10.35,1.35,7.33-2.48,6.41-3.59a17.51,17.51,0,0,1,8.26,2.86A112.1,112.1,0,0,0,65,255.73c-.14-.32-8-4.27-17.06-6.43C49.57,247.36,52.28,246.07,55.8,245.27Z" style="opacity: 0.1; transform-origin: 64.095px 250.095px;" class="animable"></path></g><g id="freepik--pumpkin--inject-232" class="animable" style="transform-origin: 47.5856px 271.888px;"><path d="M65.26,256s-14.36-2.88-22.67,5.6c-11.82,12.07-10.37,27-9,34.07-12-33,8.17-48.51,21.33-47.52C63.7,248.77,65.15,253.33,65.26,256Z" style="fill: rgb(146, 227, 169); transform-origin: 47.5909px 271.888px;" id="elyr7ts4rx6y" class="animable"></path><g id="eladd606lkpfn"><path d="M65.26,256s-14.36-2.88-22.67,5.6c-11.82,12.07-10.37,27-9,34.07-12-33,8.17-48.51,21.33-47.52C63.7,248.77,65.15,253.33,65.26,256Z" style="opacity: 0.1; transform-origin: 47.5909px 271.888px;" class="animable"></path></g><g id="eldzqtieojtrj"><path d="M54.66,251.25c-4.35.69-11,1.77-15.41,6a21.47,21.47,0,0,0-5.94,8.5c-.56,1.2-1.67,1.31-1.32-1-2.32,6.16-2.94,14.06-.61,23.71.43-.3.86-.61,1.31-.91-.15-7.58,1.61-17.46,9.9-25.93S65.26,256,65.26,256a8,8,0,0,0-.24-1.64,8.78,8.78,0,0,0-.3-.91c-.08-.17-.16-.35-.25-.53a6.89,6.89,0,0,0-.49-.8c-.11-.16-.24-.33-.37-.49a7.46,7.46,0,0,0-1.22-1.14,9.29,9.29,0,0,0-1.21-.76,15.76,15.76,0,0,0-6.27-1.58C57.21,249.09,59,250.57,54.66,251.25Z" style="opacity: 0.1; transform-origin: 47.5856px 268.305px;" class="animable"></path></g></g><path d="M40.36,259c6.35-5.24,12.17-6.1,17.75-4.81,4.87,1.13,1,1.35-.25,2.31-.93.6-6,3.51-6.91,4.24-5.87,4.66-7.85,34.17-8,38.84-.1,3.87.37,9.54,3.11,13.81-4.32-.8-9.39-4.21-11.79-10.71C26.72,282.25,34,264.26,40.36,259Z" style="fill: rgb(146, 227, 169); transform-origin: 45.7777px 283.524px;" id="elpjf22bt4w79" class="animable"></path><g id="elki9k770al"><path d="M58.11,254.21c-.23-.06-.47-.11-.71-.15l-.17,0-.72-.13h0l-.69-.09-.15,0-.74-.07h0l-.72,0h-.91c-.26,0-.51,0-.77,0H52.4l-.81.08h0c-.55.07-1.1.16-1.66.28h0A19.84,19.84,0,0,0,44.75,256c4-1.66,8.85-1.94,9-.45.08,1-5.32,4.79-8.58,8.48-6.87,7.78-8.46,20-7.19,29.74.94,7.21,1.65,10,.68,11.73-.5.88-2.68,1.76-5-4.53q.28.86.6,1.71c2.4,6.5,7.47,9.91,11.79,10.71-2.74-4.27-3.21-9.94-3.11-13.81.14-4.67,2.12-34.18,8-38.84.93-.73,6-3.64,6.91-4.24a8.2,8.2,0,0,1,1.89-.85,2.77,2.77,0,0,0,.6-.3.32.32,0,0,0,.14-.18.15.15,0,0,0,0-.07C60.42,254.88,59.79,254.6,58.11,254.21Z" style="opacity: 0.1; transform-origin: 47.0721px 283.58px;" class="animable"></path></g><path d="M65.69,255.22s-5.12,4.8-7.5,10.3c-3.63,8.42-3.53,37.5-1.44,44.76,1,3.48,2,6.13,3.85,7.91-2.1,1.28-10.33.16-14.08-4.11-4.82-5.49-6-14.44-6.36-18.29-1.36-15.61,2.27-27,9.67-34.14,5.15-5,13.09-7.5,15.84-6.44Z" style="fill: rgb(146, 227, 169); transform-origin: 52.7844px 286.829px;" id="el7q9wz76kep4" class="animable"></path><g id="elcucr17ejtwb"><path d="M65.69,255.22s-5.12,4.8-7.5,10.3c-3.63,8.42-3.53,37.5-1.44,44.76,1,3.48,2,6.13,3.85,7.91-2.1,1.28-10.33.16-14.08-4.11-4.82-5.49-6-14.44-6.36-18.29-1.36-15.61,2.27-27,9.67-34.14,5.15-5,13.09-7.5,15.84-6.44Z" style="fill: rgb(255, 255, 255); opacity: 0.15; transform-origin: 52.7844px 286.829px;" class="animable"></path></g><g id="eldq8517x9xmb"><path d="M58.81,315.82a19.27,19.27,0,0,1-1.31-3.09c-.26-.76-.51-1.58-.75-2.45v0a51.61,51.61,0,0,1-1.21-9.63c-.7-9.72-.9-23.25.15-27.57l-.38-6c-10.38,15.65-6.69,38.34-2.06,46.26,0,0-2.81.28-6.81-3.86a28.17,28.17,0,0,1-5.92-10.66c.64,4.43,2.19,11,6,15.31s12,5.39,14.08,4.11A9.47,9.47,0,0,1,58.81,315.82Z" style="opacity: 0.05; transform-origin: 50.56px 292.912px;" class="animable"></path></g><g id="freepik--pumpkin--inject-232" class="animable" style="transform-origin: 81.7117px 267.881px;"><path d="M62.24,256s13.67-5.26,23.29,1.69c13.7,9.9,14.79,24.87,14.64,32.06,6.26-34.54-16.25-46.43-29-43.24C62.56,248.61,61.91,253.35,62.24,256Z" style="fill: rgb(146, 227, 169); transform-origin: 81.7116px 267.881px;" id="ellb2k6ntm7de" class="animable"></path><g id="el8ryolxolorx"><path d="M62.24,256s13.67-5.26,23.29,1.69c13.7,9.9,14.79,24.87,14.64,32.06,6.26-34.54-16.25-46.43-29-43.24C62.56,248.61,61.91,253.35,62.24,256Z" style="opacity: 0.1; transform-origin: 81.7116px 267.881px;" class="animable"></path></g><g id="elgy3tz9yit25"><path d="M71.9,249.53c4.4-.06,11.17-.12,16.19,3.28a21.4,21.4,0,0,1,7.29,7.37c.76,1.09,1.87,1,1.13-1.23,3.32,5.68,5.27,13.35,4.61,23.26l-1.45-.68c-1.13-7.5-4.53-16.94-14.14-23.88S62.24,256,62.24,256a8.14,8.14,0,0,1,0-1.66,8.31,8.31,0,0,1,.15-.94c0-.19.09-.37.15-.57a7.53,7.53,0,0,1,.35-.87,5.89,5.89,0,0,1,.29-.55,7.29,7.29,0,0,1,1-1.32,9.07,9.07,0,0,1,1.06-1,16,16,0,0,1,5.92-2.62C69,247.83,67.5,249.59,71.9,249.53Z" style="opacity: 0.1; transform-origin: 81.7227px 264.34px;" class="animable"></path></g></g><path d="M87.3,254.77c-7.14-4.1-13-4-18.31-1.74-4.6,1.93-.7,1.49.64,2.23,1,.44,6.49,2.45,7.53,3,6.57,3.59,13.51,32.35,14.43,36.93.76,3.79,1.26,9.46-.72,14.13,4.12-1.52,8.54-5.73,9.81-12.54C104.67,275.36,94.44,258.86,87.3,254.77Z" style="fill: rgb(146, 227, 169); transform-origin: 84.1922px 280.397px;" id="elfd5psnwspyn" class="animable"></path><path d="M61.7,255.31s5.85,3.86,9.12,8.88c5,7.69,9.83,36.36,9,43.87-.4,3.6-.9,6.37-2.47,8.45,2.29.91,10.21-1.59,13.19-6.43,3.82-6.23,3.49-15.25,3.17-19.1-1.3-15.62-6.79-26.18-15.29-32-5.94-4.07-14.18-5.17-16.71-3.66Z" style="fill: rgb(146, 227, 169); transform-origin: 77.7949px 285.684px;" id="el18qfm18bqhu" class="animable"></path><g id="elq5yyhanvnw"><path d="M61.7,255.31s5.85,3.86,9.12,8.88c5,7.69,9.83,36.36,9,43.87-.4,3.6-.9,6.37-2.47,8.45,2.29.91,10.21-1.59,13.19-6.43,3.82-6.23,3.49-15.25,3.17-19.1-1.3-15.62-6.79-26.18-15.29-32-5.94-4.07-14.18-5.17-16.71-3.66Z" style="fill: rgb(255, 255, 255); opacity: 0.15; transform-origin: 77.7949px 285.684px;" class="animable"></path></g><g id="el7hsrvneylmy"><path d="M78.72,313.87a19.26,19.26,0,0,0,.77-3.26q.18-1.2.33-2.55v0a51.84,51.84,0,0,0-.44-9.7c-.95-9.69-3-23.06-4.8-27.14l-.65-6C86.8,278.86,87,301.84,83.78,310.43c0,0,2.82-.19,6.06-4.95a28,28,0,0,0,4-11.51c.12,4.48-.3,11.17-3.33,16.11s-10.9,7.34-13.19,6.43A9.45,9.45,0,0,0,78.72,313.87Z" style="opacity: 0.05; transform-origin: 83.8939px 290.96px;" class="animable"></path></g><path d="M82.25,296.62c.46,9.84-2.19,16.11-4.64,19.61a11,11,0,0,1-9,5,10.73,10.73,0,0,1-8-3,22.31,22.31,0,0,1-5.57-8.6c-4.37-13.72-6.28-30,1.34-44.77,4.75-9.18,9.24-8.73,9.24-8.73s3-.49,8.17,7.75C75.88,267.21,81.23,274.91,82.25,296.62Z" style="fill: rgb(146, 227, 169); transform-origin: 66.7568px 288.684px;" id="elmhbjmbgkda" class="animable"></path><g id="elrga62zny8q"><path d="M82.25,296.62c.46,9.84-2.19,16.11-4.64,19.61a11,11,0,0,1-9,5,10.73,10.73,0,0,1-8-3,22.31,22.31,0,0,1-5.57-8.6c-4.37-13.72-6.28-30,1.34-44.77,4.75-9.18,9.24-8.73,9.24-8.73s3-.49,8.17,7.75C75.88,267.21,81.23,274.91,82.25,296.62Z" style="fill: rgb(255, 255, 255); opacity: 0.25; transform-origin: 66.7568px 288.684px;" class="animable"></path></g><g id="els0gv88mff6"><path d="M66.64,316.59c-6.56-1-12-7.83-13.19-12.52q.7,2.82,1.58,5.52a22.31,22.31,0,0,0,5.57,8.6,10.73,10.73,0,0,0,8,3,11,11,0,0,0,9-5,25.45,25.45,0,0,0,3.82-9.05C80.28,310.66,74.54,317.74,66.64,316.59Z" style="opacity: 0.05; transform-origin: 67.435px 312.637px;" class="animable"></path></g><path d="M58.11,254.21s1.28.74-.33,2.31c0,0,3.21-.89,3.64,1.48a9.47,9.47,0,0,1,4.19-1.08,10.86,10.86,0,0,1,4.12,1.63s-.08-3.18,3.88-2.11c0,0-1-3.34-.24-4.7a8.75,8.75,0,0,1-2.93-.43,3.24,3.24,0,0,1-2.19-1.84,4.32,4.32,0,0,1-.36-1.79c-.14-2-.18-4.55,1.51-6a2.7,2.7,0,0,1,2.53-.64,4,4,0,0,0,2,.11,2.75,2.75,0,0,0,1.53-.89A4.37,4.37,0,0,1,76.63,239a2.15,2.15,0,0,1,1.31-.31,2.1,2.1,0,0,1,1,.43,2.35,2.35,0,0,1,1,1.66,2.51,2.51,0,0,1-.4,2.13,1.54,1.54,0,0,1-1.51.55c-.64-.13-.45-.85-.77-1.27-.47-.62-1.72-.3-2.32,0,.93-.15,1.67.74,1.94,1.49a1.88,1.88,0,0,0,2.54,1.28c2.74-.7,2.81-4.18,1.72-6.24a5.45,5.45,0,0,0-2.55-2.31c-1-.42-2.21,0-3.19.33a16.19,16.19,0,0,1-6.08,1c-1.09-.09-2.1-.45-3.17-.63-.63-.11-1.42-.24-1.89.28a7.47,7.47,0,0,0-1,1.81A32.71,32.71,0,0,0,61.26,244a15.6,15.6,0,0,0-.48,5.78,4.79,4.79,0,0,1-.27,2.29,4.24,4.24,0,0,1-1,1.28C59.34,253.52,58.34,254.34,58.11,254.21Z" style="fill: rgb(146, 227, 169); transform-origin: 69.7886px 247.392px;" id="elrmibg9zkdjk" class="animable"></path><g id="elaftoes4grid"><path d="M58.11,254.21s1.28.74-.33,2.31c0,0,3.21-.89,3.64,1.48a9.47,9.47,0,0,1,4.19-1.08,10.86,10.86,0,0,1,4.12,1.63s-.08-3.18,3.88-2.11c0,0-1-3.34-.24-4.7a8.75,8.75,0,0,1-2.93-.43,3.24,3.24,0,0,1-2.19-1.84,4.32,4.32,0,0,1-.36-1.79c-.14-2-.18-4.55,1.51-6a2.7,2.7,0,0,1,2.53-.64,4,4,0,0,0,2,.11,2.75,2.75,0,0,0,1.53-.89A4.37,4.37,0,0,1,76.63,239a2.15,2.15,0,0,1,1.31-.31,2.1,2.1,0,0,1,1,.43,2.35,2.35,0,0,1,1,1.66,2.51,2.51,0,0,1-.4,2.13,1.54,1.54,0,0,1-1.51.55c-.64-.13-.45-.85-.77-1.27-.47-.62-1.72-.3-2.32,0,.93-.15,1.67.74,1.94,1.49a1.88,1.88,0,0,0,2.54,1.28c2.74-.7,2.81-4.18,1.72-6.24a5.45,5.45,0,0,0-2.55-2.31c-1-.42-2.21,0-3.19.33a16.19,16.19,0,0,1-6.08,1c-1.09-.09-2.1-.45-3.17-.63-.63-.11-1.42-.24-1.89.28a7.47,7.47,0,0,0-1,1.81A32.71,32.71,0,0,0,61.26,244a15.6,15.6,0,0,0-.48,5.78,4.79,4.79,0,0,1-.27,2.29,4.24,4.24,0,0,1-1,1.28C59.34,253.52,58.34,254.34,58.11,254.21Z" style="opacity: 0.45; transform-origin: 69.7886px 247.392px;" class="animable"></path></g><g id="elzfag0pk4wca"><path d="M70.27,257c-1.83-1.68-3.19-3.5-3.88-8a17.61,17.61,0,0,0,.89,5.2c.88,2.39,1.62,2.92,2.45,4.41A2.62,2.62,0,0,1,70.27,257Z" style="opacity: 0.2; transform-origin: 68.33px 253.805px;" class="animable"></path></g><g id="el3ebaq08d7zl"><path d="M63.73,253.89a26.58,26.58,0,0,0-.5-4.79s.54,4.25-.65,6a7.38,7.38,0,0,1-1.78,1.76,1.88,1.88,0,0,1,.62,1.13A4.67,4.67,0,0,0,63.73,253.89Z" style="opacity: 0.2; transform-origin: 62.2653px 253.545px;" class="animable"></path></g></g></g><g id="freepik--Skulls--inject-232" class="animable" style="transform-origin: 250.058px 327.169px;"><g id="freepik--Skull--inject-232" class="animable" style="transform-origin: 46.3104px 327.149px;"><path d="M63,320.32c-2.61-8.24-12.21-12.56-21.43-9.63-7,2.23-11.82,8-12.54,14.29h0c0,.11,0,.24,0,.38a13.8,13.8,0,0,0,0,2.49c.18,4.1,1.12,10.2,2.06,11.5,1.07,1.47,2.08.61,2.08.61s-.26,2.46,1.92,3.1a3.6,3.6,0,0,0,3.21-.34,3.62,3.62,0,0,0,3.33,1.8c3.33-.2,3.13-2.85,5.36-3.15h0a16.61,16.61,0,0,0,4.09-.83C60.21,337.62,65.58,328.56,63,320.32Z" style="fill: rgb(146, 227, 169); transform-origin: 46.3104px 327.149px;" id="elwvhgjhpn5v" class="animable"></path><g id="el24i789i8m0u"><path d="M63,320.32c-2.61-8.24-12.21-12.56-21.43-9.63-7,2.23-11.82,8-12.54,14.29h0c0,.11,0,.24,0,.38a13.8,13.8,0,0,0,0,2.49c.18,4.1,1.12,10.2,2.06,11.5,1.07,1.47,2.08.61,2.08.61s-.26,2.46,1.92,3.1a3.6,3.6,0,0,0,3.21-.34,3.62,3.62,0,0,0,3.33,1.8c3.33-.2,3.13-2.85,5.36-3.15h0a16.61,16.61,0,0,0,4.09-.83C60.21,337.62,65.58,328.56,63,320.32Z" style="fill: rgb(255, 255, 255); opacity: 0.7; transform-origin: 46.3104px 327.149px;" class="animable"></path></g><g id="els78ctvfbqs"><path d="M49.56,339c-5.05.57-4.9,1.27-6,3.32s-2.58,2.08-4.43,1.44a3.45,3.45,0,0,0,2.4.75c3.33-.2,3.13-2.85,5.36-3.15a16.61,16.61,0,0,0,4.09-.83c7.43-2.36,12.36-8.69,12.62-15.38a19.46,19.46,0,0,1-5.78,9.68C55.89,336.64,51.76,338.75,49.56,339Z" style="fill: rgb(146, 227, 169); opacity: 0.15; transform-origin: 51.365px 334.834px;" class="animable"></path></g><path d="M40.27,328.59c1.4-1.93,5.08-3.55,7.43-1.88a4.93,4.93,0,0,1,.36,7.09c-2.27,2.53-6.55,1.68-7.81,0A4.55,4.55,0,0,1,40.27,328.59Z" style="fill: rgb(146, 227, 169); transform-origin: 44.4168px 330.704px;" id="el8fik95y44yj" class="animable"></path><g id="eloq72apj6qhe"><path d="M40.27,328.59c1.4-1.93,5.08-3.55,7.43-1.88a4.93,4.93,0,0,1,.36,7.09c-2.27,2.53-6.55,1.68-7.81,0A4.55,4.55,0,0,1,40.27,328.59Z" style="fill: rgb(255, 255, 255); opacity: 0.4; transform-origin: 44.4168px 330.704px;" class="animable"></path></g><path d="M47.7,326.71a4.67,4.67,0,0,0-4.35-.31,5.33,5.33,0,0,0-1,1,4.53,4.53,0,0,0,0,5.21c.9,1.2,3.35,2,5.51,1.39l.21-.22A4.93,4.93,0,0,0,47.7,326.71Z" style="fill: rgb(55, 71, 79); transform-origin: 45.4572px 330.107px;" id="elhc8317u4xgr" class="animable"></path><path d="M34.25,327.63c.6-1.67.35-5.47-1.27-6.25-1.95-.93-3.3,2.19-3.4,4.82s.77,4.27,2,4.12S33.67,329.24,34.25,327.63Z" style="fill: rgb(146, 227, 169); transform-origin: 32.06px 325.771px;" id="elbvx5lr8q6kk" class="animable"></path><g id="el76dcafz8kmy"><path d="M34.25,327.63c.6-1.67.35-5.47-1.27-6.25-1.95-.93-3.3,2.19-3.4,4.82s.77,4.27,2,4.12S33.67,329.24,34.25,327.63Z" style="fill: rgb(255, 255, 255); opacity: 0.4; transform-origin: 32.06px 325.771px;" class="animable"></path></g><path d="M33,321.38a1.58,1.58,0,0,0-.74-.16,8.2,8.2,0,0,0-1.1,3.89c-.09,2.64.77,4.27,2,4.12a1.55,1.55,0,0,0,.31-.06,5.69,5.69,0,0,0,.79-1.54C34.85,326,34.6,322.16,33,321.38Z" style="fill: rgb(55, 71, 79); transform-origin: 32.8526px 325.229px;" id="elw9l610wm91" class="animable"></path><path d="M36.21,331.25c-1.18-.33-3,4-2.7,5.07a1.1,1.1,0,0,0,1.87.48,1.41,1.41,0,0,0,2.09.72C38.33,336.94,37.4,331.59,36.21,331.25Z" style="fill: rgb(146, 227, 169); transform-origin: 35.6412px 334.487px;" id="elog20we6haif" class="animable"></path><g id="elzqibgvyuu2"><path d="M36.21,331.25c-1.18-.33-3,4-2.7,5.07a1.1,1.1,0,0,0,1.87.48,1.41,1.41,0,0,0,2.09.72C38.33,336.94,37.4,331.59,36.21,331.25Z" style="fill: rgb(255, 255, 255); opacity: 0.4; transform-origin: 35.6412px 334.487px;" class="animable"></path></g><path d="M36.44,336a1.5,1.5,0,0,0,1.31.95c.27-1.57-.55-5.37-1.54-5.65a.49.49,0,0,0-.17,0c-.89,1.25-1.67,3.49-1.48,4.23A1.11,1.11,0,0,0,36.44,336Z" style="fill: rgb(55, 71, 79); transform-origin: 36.1666px 334.121px;" id="elfikuc76tb1" class="animable"></path></g><g id="freepik--skull--inject-232" class="animable" style="transform-origin: 447.001px 327.169px;"><g id="freepik--leaves--inject-232" class="animable" style="transform-origin: 431.742px 332.613px;"><path d="M439.52,329.36c-3-6.46-8.15-6.4-16.66-1.78,0,0,2.25,4.82,6,6.06C433.56,335.2,438.77,332.35,439.52,329.36Z" style="fill: rgb(146, 227, 169); transform-origin: 431.19px 329.186px;" id="el2avbmt986a1" class="animable"></path><g id="el74rre0vvxc3"><path d="M439.52,329.36c-3-6.46-8.15-6.4-16.66-1.78,0,0,2.25,4.82,6,6.06C433.56,335.2,438.77,332.35,439.52,329.36Z" style="opacity: 0.3; transform-origin: 431.19px 329.186px;" class="animable"></path></g><g id="elxoip4uas6si"><path d="M425.08,327.72c3.1-.1,10.69-.63,14.44,1.64l-.7-1.41S435.82,325.66,425.08,327.72Z" style="opacity: 0.2; transform-origin: 432.3px 328.11px;" class="animable"></path></g><path d="M440.13,329.92c-6.55-2.74-10.33.81-13.46,10,0,0,4.92,2,8.53.39C439.71,338.25,441.61,332.62,440.13,329.92Z" style="fill: rgb(146, 227, 169); transform-origin: 433.647px 334.977px;" id="eller635zgig8" class="animable"></path><g id="el11jlyuzh4sh"><path d="M440.13,329.92c-6.55-2.74-10.33.81-13.46,10,0,0,4.92,2,8.53.39C439.71,338.25,441.61,332.62,440.13,329.92Z" style="opacity: 0.2; transform-origin: 433.647px 334.977px;" class="animable"></path></g><g id="el36fylc87r26"><path d="M428.4,338.49c2.21-2.17,7.44-7.7,11.73-8.57l-1.47-.56S434.9,329.7,428.4,338.49Z" style="opacity: 0.2; transform-origin: 434.265px 333.925px;" class="animable"></path></g></g><g id="freepik--skull--inject-232" class="animable" style="transform-origin: 453.796px 327.169px;"><path d="M437.11,320.32c2.61-8.24,12.21-12.56,21.44-9.63,7,2.23,11.81,8,12.54,14.29h0c0,.11,0,.24,0,.38a14.79,14.79,0,0,1,0,2.49c-.18,4.1-1.12,10.2-2.05,11.5C468,340.82,467,340,467,340s.26,2.46-1.92,3.1a3.6,3.6,0,0,1-3.21-.34,3.62,3.62,0,0,1-3.33,1.8c-3.33-.2-3.13-2.85-5.36-3.15h0a16.54,16.54,0,0,1-4.08-.83C439.86,337.62,434.5,328.56,437.11,320.32Z" style="fill: rgb(146, 227, 169); transform-origin: 453.796px 327.169px;" id="elic7br4ksf0b" class="animable"></path><g id="elstaiiagxhzc"><path d="M437.11,320.32c2.61-8.24,12.21-12.56,21.44-9.63,7,2.23,11.81,8,12.54,14.29h0c0,.11,0,.24,0,.38a14.79,14.79,0,0,1,0,2.49c-.18,4.1-1.12,10.2-2.05,11.5C468,340.82,467,340,467,340s.26,2.46-1.92,3.1a3.6,3.6,0,0,1-3.21-.34,3.62,3.62,0,0,1-3.33,1.8c-3.33-.2-3.13-2.85-5.36-3.15h0a16.54,16.54,0,0,1-4.08-.83C439.86,337.62,434.5,328.56,437.11,320.32Z" style="fill: rgb(255, 255, 255); opacity: 0.7; transform-origin: 453.796px 327.169px;" class="animable"></path></g><g id="elw16jrv9w8bp"><path d="M450.51,339c5.06.57,4.9,1.27,6,3.32s2.58,2.08,4.43,1.44a3.43,3.43,0,0,1-2.4.75c-3.33-.2-3.13-2.85-5.36-3.15a16.54,16.54,0,0,1-4.08-.83c-7.44-2.36-12.36-8.69-12.63-15.38a19.46,19.46,0,0,0,5.78,9.68C444.18,336.64,448.31,338.75,450.51,339Z" style="fill: rgb(146, 227, 169); opacity: 0.15; transform-origin: 448.705px 334.835px;" class="animable"></path></g><path d="M459.8,328.59c-1.4-1.93-5.08-3.55-7.43-1.88a4.93,4.93,0,0,0-.36,7.09c2.27,2.53,6.55,1.68,7.81,0A4.53,4.53,0,0,0,459.8,328.59Z" style="fill: rgb(146, 227, 169); transform-origin: 455.655px 330.704px;" id="elw77x82iaypg" class="animable"></path><g id="el2xr8lpfut4s"><path d="M459.8,328.59c-1.4-1.93-5.08-3.55-7.43-1.88a4.93,4.93,0,0,0-.36,7.09c2.27,2.53,6.55,1.68,7.81,0A4.53,4.53,0,0,0,459.8,328.59Z" style="fill: rgb(255, 255, 255); opacity: 0.4; transform-origin: 455.655px 330.704px;" class="animable"></path></g><path d="M452.37,326.71a4.69,4.69,0,0,1,4.36-.31,5.58,5.58,0,0,1,1,1,4.53,4.53,0,0,1,0,5.21c-.9,1.2-3.35,2-5.5,1.39a2.28,2.28,0,0,1-.22-.22A4.93,4.93,0,0,1,452.37,326.71Z" style="fill: rgb(55, 71, 79); transform-origin: 454.621px 330.107px;" id="el156klarh805" class="animable"></path><path d="M465.82,327.63c-.59-1.67-.34-5.47,1.27-6.25,2-.93,3.31,2.19,3.4,4.82s-.77,4.27-2,4.12S466.4,329.24,465.82,327.63Z" style="fill: rgb(146, 227, 169); transform-origin: 468.013px 325.771px;" id="elu2m51nvjpk" class="animable"></path><g id="elyqnzd8oqip"><path d="M465.82,327.63c-.59-1.67-.34-5.47,1.27-6.25,2-.93,3.31,2.19,3.4,4.82s-.77,4.27-2,4.12S466.4,329.24,465.82,327.63Z" style="fill: rgb(255, 255, 255); opacity: 0.4; transform-origin: 468.013px 325.771px;" class="animable"></path></g><path d="M467.09,321.38a1.6,1.6,0,0,1,.74-.16,8.09,8.09,0,0,1,1.1,3.89c.09,2.64-.77,4.27-2,4.12a1.65,1.65,0,0,1-.32-.06,5.69,5.69,0,0,1-.79-1.54C465.23,326,465.48,322.16,467.09,321.38Z" style="fill: rgb(55, 71, 79); transform-origin: 467.233px 325.23px;" id="eldoj5sucatc9" class="animable"></path><path d="M463.86,331.25c1.19-.33,3,4,2.71,5.07a1.11,1.11,0,0,1-1.88.48,1.41,1.41,0,0,1-2.09.72C461.74,336.94,462.68,331.59,463.86,331.25Z" style="fill: rgb(146, 227, 169); transform-origin: 464.434px 334.487px;" id="elgn2m215yjrg" class="animable"></path><g id="elputvjnpzizg"><path d="M463.86,331.25c1.19-.33,3,4,2.71,5.07a1.11,1.11,0,0,1-1.88.48,1.41,1.41,0,0,1-2.09.72C461.74,336.94,462.68,331.59,463.86,331.25Z" style="fill: rgb(255, 255, 255); opacity: 0.4; transform-origin: 464.434px 334.487px;" class="animable"></path></g><path d="M463.63,336a1.49,1.49,0,0,1-1.31.95c-.27-1.57.55-5.37,1.54-5.65a.55.55,0,0,1,.18,0c.88,1.25,1.66,3.49,1.47,4.23A1.11,1.11,0,0,1,463.63,336Z" style="fill: rgb(55, 71, 79); transform-origin: 463.903px 334.121px;" id="elt4lldnyv5sf" class="animable"></path></g></g></g><g id="freepik--Sparkles--inject-232" class="animable" style="transform-origin: 251.24px 219.415px;"><g id="freepik--Shine--inject-232" class="animable" style="transform-origin: 431.21px 221.59px;"><path d="M475.36,225.75c0,1.56,0,3.07-2.3,3.42,2.38,0,2.2,1.46,2.32,3.34.06-1.88.23-3.22,2.09-3.31C475.55,228.88,475.6,228,475.36,225.75Z" style="fill: rgb(69, 90, 100); transform-origin: 475.265px 229.13px;" id="elys35q2whxq" class="animable"></path><path d="M391.37,181.35c0,1.83-.05,3.6-2.7,4,2.8,0,2.59,1.73,2.73,3.94.07-2.21.26-3.8,2.45-3.9C391.59,185,391.65,184,391.37,181.35Z" style="fill: rgb(69, 90, 100); transform-origin: 391.26px 185.32px;" id="elfd30bolp1u" class="animable"></path><path d="M460.67,237c0,2.38-.06,4.68-3.5,5.21,3.64,0,3.36,2.24,3.54,5.11.1-2.87.35-4.92,3.18-5.06C461,241.79,461,240.44,460.67,237Z" style="fill: rgb(146, 227, 169); transform-origin: 460.53px 242.16px;" id="elj91nnr7g46" class="animable"></path><path d="M395.8,203.62c0,2.25-.05,4.42-3.31,4.93,3.44-.05,3.18,2.12,3.35,4.83.09-2.71.33-4.66,3-4.79C396.08,208.13,396.15,206.85,395.8,203.62Z" style="fill: rgb(146, 227, 169); transform-origin: 395.665px 208.5px;" id="elimbwpuhpys" class="animable"></path><path d="M444.72,181.67c0,2.41-.06,4.73-3.54,5.28,3.68,0,3.4,2.27,3.58,5.18.1-2.91.36-5,3.23-5.14C445,186.5,445.1,185.13,444.72,181.67Z" style="fill: rgb(235, 235, 235); transform-origin: 444.585px 186.9px;" id="elzwn3vqvzvx" class="animable"></path><path d="M471.88,182.37c0,2-.05,3.92-2.94,4.37,3.06,0,2.82,1.88,3,4.29.09-2.41.3-4.14,2.68-4.25C472.13,186.37,472.19,185.23,471.88,182.37Z" style="fill: rgb(146, 227, 169); transform-origin: 471.78px 186.7px;" id="elnlpeet3bt2r" class="animable"></path><path d="M469.47,254.49c0,1.69,0,3.32-2.49,3.7,2.59,0,2.39,1.6,2.52,3.64.07-2,.25-3.51,2.26-3.6C469.68,257.88,469.73,256.92,469.47,254.49Z" style="fill: rgb(235, 235, 235); transform-origin: 469.37px 258.16px;" id="elq660ywzkjr" class="animable"></path><path d="M471.86,205.36c0,1.69,0,3.33-2.49,3.71,2.59,0,2.39,1.59,2.52,3.64.07-2.05.25-3.51,2.27-3.61C472.07,208.76,472.13,207.79,471.86,205.36Z" style="fill: rgb(224, 224, 224); transform-origin: 471.765px 209.035px;" id="elhbuwe3v9vx" class="animable"></path><path d="M411.44,227.52c0-2-.05-3.93-2.94-4.38,3.06,0,2.82-1.88,3-4.29.09,2.41.3,4.14,2.68,4.25C411.69,223.51,411.75,224.65,411.44,227.52Z" style="fill: rgb(235, 235, 235); transform-origin: 411.34px 223.185px;" id="elafrgddkivuq" class="animable"></path><path d="M387.44,245.57c0-1.69,0-3.33-2.49-3.71,2.59,0,2.39-1.59,2.52-3.64.07,2.05.25,3.51,2.27,3.61C387.65,242.17,387.7,243.14,387.44,245.57Z" style="fill: rgb(224, 224, 224); transform-origin: 387.345px 241.895px;" id="elkaysstuqsbt" class="animable"></path></g><g id="freepik--shine--inject-232" class="animable" style="transform-origin: 61.825px 215.545px;"><path d="M27.12,217c0,1.56,0,3.06,2.29,3.41-2.38,0-2.2,1.47-2.31,3.35-.07-1.88-.23-3.23-2.09-3.32C26.93,220.16,26.88,219.27,27.12,217Z" style="fill: rgb(69, 90, 100); transform-origin: 27.21px 220.38px;" id="elq22qaf741bo" class="animable"></path><path d="M70.65,195.69c0,1.83,0,3.6,2.69,4-2.8,0-2.58,1.73-2.72,3.94-.08-2.21-.27-3.8-2.45-3.9C70.42,199.36,70.36,198.32,70.65,195.69Z" style="fill: rgb(69, 90, 100); transform-origin: 70.755px 199.66px;" id="elq9ncsp5ppyd" class="animable"></path><path d="M50.49,226.32c0,2.38.06,4.67,3.5,5.21-3.63-.05-3.36,2.24-3.54,5.11-.09-2.87-.34-4.93-3.18-5.07C50.2,231.09,50.12,229.73,50.49,226.32Z" style="fill: rgb(146, 227, 169); transform-origin: 50.63px 231.48px;" id="elrb4v87gp1le" class="animable"></path><path d="M93.72,208.29c0,2.25.06,4.42,3.31,4.92-3.44,0-3.18,2.12-3.35,4.84-.09-2.72-.33-4.66-3-4.79C93.45,212.8,93.37,211.52,93.72,208.29Z" style="fill: rgb(146, 227, 169); transform-origin: 93.855px 213.17px;" id="elmcdzdksdcbi" class="animable"></path><path d="M52.08,177c0,2.41.06,4.73,3.55,5.28-3.69,0-3.41,2.27-3.59,5.17-.1-2.9-.35-5-3.22-5.13C51.79,181.81,51.71,180.44,52.08,177Z" style="fill: rgb(235, 235, 235); transform-origin: 52.225px 182.225px;" id="elukg99kavaac" class="animable"></path><path d="M27.33,246.74c0,1.7.05,3.33,2.49,3.71-2.58,0-2.39,1.59-2.51,3.64-.07-2.05-.25-3.51-2.27-3.61C27.13,250.14,27.07,249.17,27.33,246.74Z" style="fill: rgb(235, 235, 235); transform-origin: 27.43px 250.415px;" id="el4ofkolg6k2j" class="animable"></path><path d="M47,207.67c0,1.69,0,3.33,2.49,3.71-2.58,0-2.39,1.59-2.51,3.64-.07-2.05-.25-3.51-2.27-3.61C46.79,211.07,46.73,210.1,47,207.67Z" style="fill: rgb(224, 224, 224); transform-origin: 47.1px 211.345px;" id="elm3r89bce89e" class="animable"></path><path d="M71.8,228c0-2,0-3.92,2.94-4.37-3,0-2.82-1.88-3-4.29-.08,2.41-.3,4.14-2.68,4.25C71.55,224,71.49,225.09,71.8,228Z" style="fill: rgb(235, 235, 235); transform-origin: 71.9px 223.67px;" id="elvdmo37tvjy" class="animable"></path><path d="M96.14,246.49c0-1.7,0-3.33,2.5-3.71-2.59,0-2.4-1.59-2.52-3.64-.07,2.05-.25,3.51-2.27,3.61C95.94,243.09,95.88,244.06,96.14,246.49Z" style="fill: rgb(224, 224, 224); transform-origin: 96.245px 242.815px;" id="elkjhpwdjyicg" class="animable"></path></g></g><g id="freepik--Star--inject-232" class="animable" style="transform-origin: 248.965px 373.931px;"><g id="freepik--star--inject-232" class="animable" style="transform-origin: 248.965px 373.931px;"><path d="M345.14,449.12a.9.9,0,0,1-.38-.08l-95.7-39.37L153.37,449a1,1,0,0,1-1.25-1.42l36.13-63-95-39.1a1,1,0,0,1,.38-1.92H211.79l36.41-63.46a1,1,0,0,1,1.73,0l36.41,63.46H404.52a1,1,0,0,1,.39,1.92l-95,39.09,36.13,63a1,1,0,0,1-.87,1.5ZM98.66,345.64l91.4,37.6a1,1,0,0,1,.57.6,1,1,0,0,1-.08.82l-35.24,61.42,93.37-38.41a1,1,0,0,1,.76,0l93.38,38.41-35.24-61.42a1,1,0,0,1-.08-.82,1,1,0,0,1,.56-.6l91.4-37.6H285.76a1,1,0,0,1-.86-.51l-35.84-62.44-35.83,62.44a1,1,0,0,1-.86.51Z" style="fill: rgb(146, 227, 169); transform-origin: 249.08px 364.361px;" id="elrh7ovf8glmk" class="animable"></path><path d="M249.06,409.59a1.06,1.06,0,0,1-.38-.07L189.3,385.09a1,1,0,0,1-.56-.6,1,1,0,0,1,.08-.82l22.68-39.53a1,1,0,0,1,.87-.5h73.39a1,1,0,0,1,.87.5l22.68,39.53a1,1,0,0,1,.08.82,1,1,0,0,1-.56.6l-59.39,24.43A1,1,0,0,1,249.06,409.59Zm-57.94-25.92,57.94,23.84L307,383.67l-21.83-38H212.94Z" style="fill: rgb(146, 227, 169); transform-origin: 249.065px 376.615px;" id="ely9g8hwtxj3" class="animable"></path><path d="M249,468.26c-41.57,0-83.15-9.13-114.8-27.41C103.31,423,86.32,399.3,86.32,374s17-49,47.84-66.85c63.31-36.55,166.3-36.55,229.61,0C394.62,325,411.61,348.69,411.61,374s-17,49.05-47.84,66.86C332.12,459.13,290.54,468.26,249,468.26Zm0-186.56c-41.22,0-82.43,9.05-113.81,27.17C105,326.31,88.32,349.44,88.32,374s16.63,47.69,46.84,65.13c31.37,18.11,72.6,27.17,113.8,27.17s82.43-9.05,113.81-27.17C393,421.68,409.61,398.55,409.61,374S393,326.31,362.77,308.87C331.4,290.76,290.17,281.7,249,281.7Z" style="fill: rgb(146, 227, 169); transform-origin: 248.965px 373.999px;" id="el350ru4j9exg" class="animable"></path></g></g><g id="freepik--character-2--inject-232" class="animable" style="transform-origin: 244.13px 210.633px;"><g id="freepik--Character--inject-232" class="animable" style="transform-origin: 244.13px 210.633px;"><g id="freepik--Bottom--inject-232" class="animable" style="transform-origin: 248.626px 263.137px;"><path d="M283.62,314.73c-2.48-9.36-2.72-26.45-4.1-34.94-1.61-10-9.43-19.58-9.43-19.58s1-23.71,1.39-35.14c1.12-28.84-4.23-35.47-7.8-42.22-1.08-2-5.35-9.27-5.35-9.27l-33,.1c-.86,4.84-3.64,10.59-5,20.5-1.19,16.47-3.06,58.19-1.88,74.14.7,9.55,3.2,46.07,3.39,47.37a5.68,5.68,0,0,0,6.15,3.12c3.78-.77,5.91-5.07,5.9-5.47l.19-1.53c.46-9,4.66-22.68,5.44-31.9a72.38,72.38,0,0,0-.37-15.26l4.73-24.91a182.45,182.45,0,0,0,9.38,34.19c4.67,12,20.58,47.32,20.58,47.32,1.47,3.72,9.4,1.53,10.22-4.95Z" style="fill: rgb(242, 143, 143); transform-origin: 251.067px 248.32px;" id="elz06x95z9ne" class="animable"></path><path d="M283.62,314.73c2-.41,2,6.56,3.29,10.74,1.43,4.49,3.81,7.46,5,11.13,1.4,4.19,1.3,6.1.2,10-.86,3.07-7.1,8.4-10.5,5s-4.82-7.73-5.34-12.1a68.08,68.08,0,0,0-2.14-10.84c-1-3.57-3.1-9.81-1.64-10.34l.91,2c1.23,1.4,10.13-.82,10.59-4.14Z" style="fill: rgb(55, 71, 79); transform-origin: 282.469px 333.704px;" id="eltkvaot8s71m" class="animable"></path><path d="M235.38,321.73c.52,2.19-.08,8.19-.08,8.19s-1,2.06-4.36,3.41L229.5,325Z" style="fill: rgb(38, 50, 56); transform-origin: 232.546px 327.53px;" id="el2b2bnwajjjh" class="animable"></path><polygon points="230.94 333.33 223.52 330.82 221.79 324.2 230.06 328.21 230.94 333.33" id="elmz084uj28ek" class="animable" style="transform-origin: 226.365px 328.765px;"></polygon><path d="M221.75,314.39l-.15-2.06c-1,.48-1.07,8.67-6.45,14.39-4,4.21-8.5,6.69-10.29,8.9-2.39,2.95,3.25,7.88,10.64,6.37,3.66-.76,9.22-3.05,10.75-5.51s2.57-6.46,3.81-8.27,4.68-3.2,5.49-5.2c.9-2.21.18-5.19-.44-7.25-.56-1.89-.22-3.9-1.08-3.95l-.19,1.53c-.5,1-3.46,2.33-7.19,2.5C224.88,315.92,222.55,316,221.75,314.39Z" style="fill: rgb(55, 71, 79); transform-origin: 220.139px 327.04px;" id="elu2jx2urb8yi" class="animable"></path></g><g id="freepik--Top--inject-232" class="animable" style="transform-origin: 244.13px 171.545px;"><path d="M260.54,81.91a32.34,32.34,0,0,1,.48-3.38,3.46,3.46,0,0,1,.38-1.15,3.82,3.82,0,0,1,2.09-1.33,40.45,40.45,0,0,0,4.7-2.12,4.75,4.75,0,0,1,1.05,2.43.86.86,0,0,1,0,.39.91.91,0,0,1-.28.4,13.42,13.42,0,0,0-2.8,3.52,2.74,2.74,0,0,0,2.15,3.84c-.5-.15-.66-.79-.62-1.31a4,4,0,0,1,1.74-3c1.05-.68,2.36-.82,3.49-1.36a2.59,2.59,0,0,0,1.16-1,2.78,2.78,0,0,0,.27-1.21,10,10,0,0,0-2-6.49,2,2,0,0,0-1.07-.86,2.34,2.34,0,0,0-1.05.08,26.45,26.45,0,0,1-12.66-.29A8.58,8.58,0,0,0,254,68.6a8.75,8.75,0,0,0-3,1.49,20.87,20.87,0,0,0-2.82,2.22,117.08,117.08,0,0,0-8.41,8.84l-6.66,7.5a14.14,14.14,0,0,0-3.81,6.94c-1.3,7.41,5,14.7,14,16.28s17.38-3.15,18.68-10.57a41.58,41.58,0,0,0-.56-5A109.14,109.14,0,0,1,260.54,81.91Z" style="fill: rgb(55, 71, 79); transform-origin: 251.746px 90.3732px;" id="elxs0e6l5sgf" class="animable"></path><path d="M260.79,90.54a50.72,50.72,0,0,0-11.53-4.63,44.14,44.14,0,0,0-12.89-1l-3.3,3.72a14.14,14.14,0,0,0-3.81,6.94,11.65,11.65,0,0,0-.14,2.76,10.33,10.33,0,0,0,.18,1.36,12.38,12.38,0,0,0,1.11,3.25,16,16,0,0,0,6,6.35,19.47,19.47,0,0,0,6.85,2.56c.56.1,1.12.17,1.68.22a18,18,0,0,0,11.18-2.5l.6-.4a14.46,14.46,0,0,0,2.13-1.83,12.8,12.8,0,0,0,.89-1.06,12.49,12.49,0,0,0,.77-1.13,11.56,11.56,0,0,0,1.43-3.87,41.58,41.58,0,0,0-.56-5A55.26,55.26,0,0,1,260.79,90.54Z" style="fill: rgb(146, 227, 169); transform-origin: 245.516px 98.4851px;" id="elb7fy7glcrve" class="animable"></path><g id="el9s1nshcth9"><ellipse cx="244.68" cy="113.07" rx="23.8" ry="38.64" style="fill: rgb(69, 90, 100); transform-origin: 244.68px 113.07px; transform: rotate(-71.3deg);" class="animable"></ellipse></g><path d="M276.84,179.21c-2.34-1.6-5.57-2.9-5.85-5.72-.17-1.73.94-3.33,2.23-4.49a35.42,35.42,0,0,0,3.93-3.39,9.07,9.07,0,0,0,1.25-9,13.39,13.39,0,0,0-6.31-6.8,11.32,11.32,0,0,0,8-3.2,7.24,7.24,0,0,0,1.35-8.19,2.12,2.12,0,0,1-1.06,2.42,4.77,4.77,0,0,1-2.79.46c-1.67-.12-3.47-.64-4.4-2-1.35-2-.23-4.75-.64-7.15-.58-3.39-3.83-5.26-6.16-7.41-3.14-2.91-3-5.63-2.89-9.79,0-2.84.14-5.76-.77-8.45a8.89,8.89,0,0,0-3.27-4.51,15,15,0,0,0-2.3-1c-.77-.36-.8-.72-1.13-1.5-1.27-3-4-4.53-7-5.31a32.92,32.92,0,0,0-11.32-.26,57.93,57.93,0,0,1-9.3,1.58c-.89,0-3,0-3.7.56a3,3,0,0,0-1,3.38c.43,1.49,2.11,2.63,2.07,4.63-.87,1-1.94,3-.39,3.93a3.1,3.1,0,0,0,1.5.42,10.15,10.15,0,0,0-1.55,1.85,3.87,3.87,0,0,0-.63,2.29,2.42,2.42,0,0,0,1.2,2,4,4,0,0,0,1,.32l2.23.5c-.16.31-.28.53-.32.6-2.29,3.67-6.55,7.87-3.56,12.43.68,1,1.67,2,1.65,3.21,0,1.68-1.88,2.63-3.4,3.33-2.65,1.23-5.27,3-6.37,5.68-1.3,3.15-.23,6.69.21,10.07s-.22,7.51-3.33,8.89a16.52,16.52,0,0,0-2.59,1,4.45,4.45,0,0,0-1.54,2,8,8,0,0,0,5.81,11.18,4.27,4.27,0,0,1-6,5.21,7,7,0,0,0,9.75,1.26c-3.16,4.18-2.41,10.59,1.19,14.39s9.46,5,14.5,3.57a11.05,11.05,0,0,1,4-.78c2,.2,3.52,1.75,5.2,2.84,4.52,2.92,8,1,12.74.81a27.66,27.66,0,0,0,9.52-1.63,11.31,11.31,0,0,0,6.68-6.62c1-3.08-.13-6.91-3-8.43a10.78,10.78,0,0,1,5.37,1.55,6.05,6.05,0,0,1,2.85,4.65,5.71,5.71,0,0,0,2.26-6A9,9,0,0,0,276.84,179.21Z" style="fill: rgb(38, 50, 56); transform-origin: 245.661px 147.708px;" id="el8n76byd7il9" class="animable"></path><path d="M186.3,142.27c.39.65,2.6,2.83,3.8,4.2,2.25,2.56,10.18,9.35,10.18,9.35s12.52-8.71,18.09-16.14,10.17-4.36,14.56-3.69c0,0,.76,8.33-7.94,19-3.85,3.09-18.92,13.59-21.73,15.61-2.62,1.88-5.07,3.41-8.32,0a131.45,131.45,0,0,1-9.64-12.12c-2.9-4.23-5.54-8.53-6.4-10a51,51,0,0,0-3-4.75c-1.52-2-2.28-4.13-1.57-6.67a6.86,6.86,0,0,0,.44-2.12,10.57,10.57,0,0,0-.44-1.91,4.92,4.92,0,0,1,.08-2.41,1.82,1.82,0,0,0,.12-.65,1.62,1.62,0,0,0-.34-.74q-1-1.42-1.86-2.91a7.64,7.64,0,0,1-1.34-2.82,1.29,1.29,0,0,1,.61-1.34,1.2,1.2,0,0,1,.93-1.7,1.89,1.89,0,0,1,.81-1.72,1.1,1.1,0,0,1,.44-.11c.24,0,.46.3.58.51.39.7.57.94.74,1.33a.9.9,0,0,1,1.32-.33,6.65,6.65,0,0,1,.93.82,12,12,0,0,0,1.5,1.44c.69.51,1.45.9,2.1,1.44a10.15,10.15,0,0,1,1.47,1.6c1.87,2.39,3.88,4.78,3.93,7.94a71.48,71.48,0,0,1-.26,7.6,2,2,0,0,0,.22,1.23" style="fill: rgb(242, 143, 143); transform-origin: 201.958px 145.627px;" id="elw6ddy3d34o" class="animable"></path><path d="M184,130.88a.55.55,0,0,1-.11.38c-.09.09-.23,0-.33,0a2.65,2.65,0,0,1-.54-.61,13.58,13.58,0,0,1-.73-1.53,3.54,3.54,0,0,0-1.21-1.31c-.48-.34-1-.62-1.39-1s-.84-.72-1.28-1.09a3.44,3.44,0,0,0-.78-.54.86.86,0,0,0-.7,0,1.24,1.24,0,0,0-.47.43,2.72,2.72,0,0,0-.45,1.87,4.14,4.14,0,0,0,.72,1.72c.33.5.74.93,1.05,1.35a3.43,3.43,0,0,1,.67,1.37,6.92,6.92,0,0,1-.6,3.12,9.89,9.89,0,0,0-.6,3.42,7,7,0,0,0,1.08,3.25,7.16,7.16,0,0,1-.69-3.25,9.5,9.5,0,0,1,.78-3.21c.2-.52.43-1.06.59-1.63a4.13,4.13,0,0,0,.17-1.83c-.22-1.32-1.24-2.17-1.8-3a3.59,3.59,0,0,1-.61-1.38,2.09,2.09,0,0,1,.32-1.36c.06-.09.12-.16.14-.16s0,0,.12,0a2.83,2.83,0,0,1,.62.42c.44.34.87.71,1.37,1,1,.68,2.07,1,2.61,2a12.7,12.7,0,0,0,.9,1.45,2.66,2.66,0,0,0,.65.6c.12.06.32.13.44,0A.62.62,0,0,0,184,130.88Z" style="fill: rgb(177, 102, 104); transform-origin: 180.006px 133.408px;" id="elsarbk833vfl" class="animable"></path><path d="M233.07,135.47c-1.33.16-7.38-2.35-10.18-1.58-3.86,1.06-5.3,4.68-7.37,8.34-1,1.74-15.14,13.13-15.14,13.13l-8-7a8.68,8.68,0,0,1-3.13,6.11c-3.07,2.47-5.13,2.31-5.13,2.31a107.07,107.07,0,0,0,11.35,15.16c1.79,1.88,4,2.22,7.5,0s23.86-16.53,23.86-16.53S239.56,145.79,233.07,135.47Z" style="fill: rgb(55, 71, 79); transform-origin: 209.517px 153.611px;" id="elsxhzrjlk9qt" class="animable"></path><path d="M193.7,149.64a11.54,11.54,0,0,1-3.08,6.16,9,9,0,0,1-5.32,2.73l-4.08-6c4.21.25,6.9-2.28,8.39-7Z" style="fill: rgb(69, 90, 100); transform-origin: 187.46px 152.03px;" id="elds114zg2qim" class="animable"></path><path d="M219.43,197.4c2.65-12.22,4.71-23,4.71-23a65.71,65.71,0,0,0-.58-9.61s-4.24-2.9-4.47-7.72c-.24-5,.87-8.66,5.62-14.19a40.83,40.83,0,0,1,8.36-7.44l7.8-1.53a71.51,71.51,0,0,1,13.39.8s8,1.95,10,2.55,3.06,6.84,1.72,14.23-3.81,17.8-4.09,20.54.73,4.88,3.76,10.36c3.34,6,7.22,12.94,7.55,32.7.5,29.12,8.91,43.58,8.91,43.58s-6,16.85-41.62,15.8c-30.08-.89-33.22-17.9-33.22-17.9S217.59,205.85,219.43,197.4Z" style="fill: rgb(69, 90, 100); transform-origin: 244.69px 204.193px;" id="elt7y856nfln" class="animable"></path><g id="elqpeqj973tr"><path d="M252.68,163.81A10.66,10.66,0,0,1,242.33,169a11.21,11.21,0,0,1-9.26-6.39s-.06,7.84,9.18,8.26S252.68,163.81,252.68,163.81Z" style="opacity: 0.2; transform-origin: 242.875px 166.749px;" class="animable"></path></g><path id="freepik--Hat--inject-232" d="M231.54,95.19c17.34-1.62,32.43,9.1,32.06,23.5,4-6.45,1-15,1-15-1.46-5-9.49-16.71-29-11.64Z" style="fill: rgb(69, 90, 100); transform-origin: 248.61px 104.747px;" class="animable"></path><path d="M231.07,102.89c-2.08,1.26-2.86,2.66-2.6,14.61.2,9.26,2.57,11.71,5.22,12.61a16,16,0,0,0,6.27.4l.18,4.42s-3.64,5.39,3,5.7a11.67,11.67,0,0,0,10.64-5.42l0-12.08s1.95,1.66,4.77-.86c2.34-2.09,2.5-6,.65-7.81a4.25,4.25,0,0,0-6.67,1.35s-2.49,2.1-2.72-1.21,0-9.39-4.31-11.85C237.93,103.19,238.49,109.26,231.07,102.89Z" style="fill: rgb(242, 143, 143); transform-origin: 244.441px 121.703px;" id="elgiitfpme3y9" class="animable"></path><path d="M253.75,132c0,1.9-3.79,7.35-11.31,8.67,2.41,1.78,7.33,4,10.89,1.71s3.26-7,3.26-7Z" style="fill: rgb(250, 250, 250); transform-origin: 249.518px 137.679px;" id="el5mknoll4iyr" class="animable"></path><path d="M242.44,140.64c-1.95-2.07-2.67-3.33-2.3-5.71l-.09-2.54-3.11,2.43S233.3,139,235.08,141,242.44,140.64,242.44,140.64Z" style="fill: rgb(250, 250, 250); transform-origin: 238.515px 137.097px;" id="el4157taqi93u" class="animable"></path><path d="M242.6,122l-3.68,1.34a1.92,1.92,0,0,0,2.48,1.24A2.06,2.06,0,0,0,242.6,122Z" style="fill: rgb(177, 102, 104); transform-origin: 240.815px 123.346px;" id="eldun7y926u89" class="animable"></path><path d="M230.22,111.1l2.71-1a1.38,1.38,0,0,0-1.82-.87A1.52,1.52,0,0,0,230.22,111.1Z" style="fill: rgb(38, 50, 56); transform-origin: 231.54px 110.117px;" id="elimrhgwxvld" class="animable"></path><path d="M242.44,110.27l2.72,1a1.39,1.39,0,0,0-.8-1.86A1.53,1.53,0,0,0,242.44,110.27Z" style="fill: rgb(38, 50, 56); transform-origin: 243.858px 110.297px;" id="elyay4z51kv9f" class="animable"></path><polygon points="238.12 111.5 238.13 119.95 233.85 119.14 238.12 111.5" style="fill: rgb(177, 102, 104); transform-origin: 235.99px 115.725px;" id="elai04zisrlkl" class="animable"></polygon><path d="M240,130.51c3-.42,8.06-1.16,10.85-5.73,0,0-.81,3.14-2.79,4.57-2.78,2-8,2.62-8,2.62Z" style="fill: rgb(177, 102, 104); transform-origin: 245.425px 128.375px;" id="elssx4zkfewqk" class="animable"></path><path d="M244.42,113.75c0,.71-.54-.33-1.26-.27s-1.3,1.19-1.34.48a1.34,1.34,0,0,1,1.23-1.39A1.26,1.26,0,0,1,244.42,113.75Z" style="fill: rgb(38, 50, 56); transform-origin: 243.119px 113.379px;" id="elvlyzopaj9s" class="animable"></path><path d="M233.85,114.06c-.17.69-.42-.47-1.12-.62s-1.59.76-1.43.07a1.34,1.34,0,0,1,1.58-1A1.25,1.25,0,0,1,233.85,114.06Z" style="fill: rgb(38, 50, 56); transform-origin: 232.587px 113.379px;" id="ela7nxwl22fa" class="animable"></path><path d="M301.92,145.62c-.39.65-2.6,2.83-3.8,4.2-2.25,2.56-10.18,9.34-10.18,9.34a115.06,115.06,0,0,1-11.77-13.23c-5.57-7.42-5.78-6.79-11.31-8.28a27.26,27.26,0,0,0-1.31,19.11C267.41,159.84,282.15,172,285,174c2.62,1.88,5.07,3.4,8.32,0a132.81,132.81,0,0,0,9.64-12.12c2.9-4.23,5.54-8.54,6.4-10a52.26,52.26,0,0,1,3-4.74c1.52-2,2.28-4.13,1.57-6.67a6.86,6.86,0,0,1-.44-2.12,9.62,9.62,0,0,1,.44-1.91,4.92,4.92,0,0,0-.08-2.41,1.87,1.87,0,0,1-.12-.65,1.65,1.65,0,0,1,.34-.75c.66-.94,1.28-1.91,1.86-2.9a7.64,7.64,0,0,0,1.34-2.82,1.29,1.29,0,0,0-.61-1.34,1.2,1.2,0,0,0-.93-1.7,1.87,1.87,0,0,0-.81-1.72,1.1,1.1,0,0,0-.44-.11c-.24,0-.46.29-.58.5-.39.71-.57.95-.74,1.33a.9.9,0,0,0-1.32-.32,6.07,6.07,0,0,0-.93.82,12,12,0,0,1-1.5,1.44c-.69.5-1.45.89-2.1,1.44a10.15,10.15,0,0,0-1.47,1.6c-1.87,2.39-3.88,4.78-3.93,7.93a71.3,71.3,0,0,0,.26,7.6,2,2,0,0,1-.22,1.24" style="fill: rgb(242, 143, 143); transform-origin: 289.849px 149.03px;" id="elztvciaw2b5" class="animable"></path><path d="M304.22,134.22a.56.56,0,0,0,.11.39c.09.09.23,0,.33-.05a2.71,2.71,0,0,0,.54-.62,12.64,12.64,0,0,0,.73-1.52,3.65,3.65,0,0,1,1.21-1.32c.48-.33.95-.61,1.39-.95s.84-.73,1.28-1.09a3.81,3.81,0,0,1,.78-.55.91.91,0,0,1,.7,0,1.31,1.31,0,0,1,.47.42,2.75,2.75,0,0,1,.45,1.88,4.14,4.14,0,0,1-.72,1.72c-.33.5-.74.93-1.05,1.35a3.43,3.43,0,0,0-.67,1.37,6.94,6.94,0,0,0,.6,3.12,9.89,9.89,0,0,1,.6,3.42,7,7,0,0,1-1.08,3.25,7.16,7.16,0,0,0,.69-3.25,9.56,9.56,0,0,0-.78-3.22,17.05,17.05,0,0,1-.59-1.62,4.16,4.16,0,0,1-.17-1.84c.22-1.31,1.24-2.16,1.8-3a3.59,3.59,0,0,0,.61-1.38,2.06,2.06,0,0,0-.32-1.36c-.06-.09-.12-.16-.14-.16s0,0-.12,0a3.14,3.14,0,0,0-.62.41c-.44.35-.87.72-1.37,1-1,.68-2.07,1-2.61,2a12.7,12.7,0,0,1-.9,1.45,2.62,2.62,0,0,1-.65.59c-.12.07-.32.14-.44,0A.64.64,0,0,1,304.22,134.22Z" style="fill: rgb(177, 102, 104); transform-origin: 308.218px 136.74px;" id="el2vyh32915f5" class="animable"></path><path d="M263.51,137.07c1.32.17,3.71-.64,6.35.58s4.13,4,5.22,5.67,12.76,15.39,12.76,15.39l8-7a8.68,8.68,0,0,0,3.13,6.11c3.07,2.47,5.13,2.31,5.13,2.31a107.71,107.71,0,0,1-11.35,15.16c-1.79,1.88-4,2.22-7.5,0s-22.16-18.15-22.16-18.15S257,147.4,263.51,137.07Z" style="fill: rgb(55, 71, 79); transform-origin: 282.302px 156.896px;" id="elyqk77bt45j" class="animable"></path><path d="M294.52,153a11.58,11.58,0,0,0,3.08,6.17,9,9,0,0,0,5.32,2.73l4.08-6c-4.21.26-6.9-2.27-8.39-7Z" style="fill: rgb(69, 90, 100); transform-origin: 300.76px 155.4px;" id="elfsl6fqldiws" class="animable"></path></g></g></g><g id="freepik--character-3--inject-232" class="animable" style="transform-origin: 321.07px 257.428px;"><g id="freepik--character--inject-232" class="animable" style="transform-origin: 321.07px 257.428px;"><g id="freepik--bottom--inject-232" class="animable" style="transform-origin: 351.755px 307.53px;"><path d="M362.29,261.92c-.24-16.12-3.91-21.55-3.91-21.55l-41.65,1.17s-1.77,25-2,40c-.12,6.84-.09,12.53,0,16.48,1.18,8.24,17.83,12.71,21.27,5.19l3.74-22.38s2.08,12.25,3.52,21.31c1,4.74,20.27,2.57,20.24-4.12C363.47,291.08,362.39,268.64,362.29,261.92Z" style="fill: rgb(255, 189, 167); transform-origin: 339.075px 273.712px;" id="el61v3e4deads" class="animable"></path><path d="M333.93,315.45l2-12.23c-8.28,2.56-19.11-1.45-21.27-5.19a99.5,99.5,0,0,0,.3,12.53c.31,4.88.67,10.47,1.13,19.07.4,7.41,2.62,40.8,2.62,40.8a7.09,7.09,0,0,0,4.63,1.67,10.11,10.11,0,0,0,5.31-1s3.15-16.48,5.13-28.53a109.8,109.8,0,0,0,1.72-16.8C335.55,322.87,334.46,317.94,333.93,315.45Z" style="fill: rgb(38, 50, 56); transform-origin: 325.257px 335.083px;" id="el8d0324920w" class="animable"></path><path d="M388.06,356.37c-1.5-4.05-10.55-26.81-12.5-31.21-3.09-7-5-10.67-11.12-14.08,0,0-.43-4.45-1-13.05-2.4,4.12-14.07,7-20.24,4.12,1.55,9.13,2.8,11.88,3.88,13.92,1.38,2.59,34.26,46.62,34.26,46.62A11,11,0,0,1,388.06,356.37Z" style="fill: rgb(38, 50, 56); transform-origin: 365.63px 330.36px;" id="el9lccgomoou" class="animable"></path><path d="M393.64,359.85a6.12,6.12,0,0,1,.06,1.6c-.07,1.86-.15,3.72-.23,5.58a13.22,13.22,0,0,1-.23,2.19,12.94,12.94,0,0,0,0,2.64c0,.93,0,1.85,0,2.77a5.16,5.16,0,0,0,.05,1.18c.11.38-5.89,4-8.32,5.4a4.51,4.51,0,0,1-.44.22,4,4,0,0,1-4-.77,6.49,6.49,0,0,1,1.41-7.33s.31,0,.17-2.33c-.06-1.67-.14-3.37-.36-5a10.69,10.69,0,0,0-.93-3c-.4-.87-1.15-1.78-1.15-2.78a4.24,4.24,0,0,1,.9-2,5.87,5.87,0,0,1,1.44-1.63,11,11,0,0,1,4.26-2.23,1.88,1.88,0,0,1,1-.06c.49.13.8.59,1.14,1a10.83,10.83,0,0,0,2.84,1.89,4.81,4.81,0,0,1,2.34,2.37A2.42,2.42,0,0,1,393.64,359.85Z" style="fill: rgb(55, 71, 79); transform-origin: 386.698px 367.962px;" id="elsgdxptjmr7" class="animable"></path><path d="M381.92,373.33a8.78,8.78,0,0,0-.76,1.15h0a8.18,8.18,0,0,0-.64,6.18c-4.34-.23-5.56-2.61-5.56-2.61a4,4,0,0,1,2.12-3.69,6,6,0,0,1,.92-.51l.05,0A6.53,6.53,0,0,1,381.92,373.33Z" style="fill: rgb(250, 250, 250); transform-origin: 378.438px 376.948px;" id="ele88xjum7als" class="animable"></path><path d="M393.87,360.42c1,.35.87,3.08.32,5.73s-.88,3.57-.47,5.75.63,3.14-.26,4a47.21,47.21,0,0,1-8.21,5.5c-2,.87-6.75.17-9.66-2.94a8.06,8.06,0,0,1-1.65-7c3.61,6.73,12.78,3.26,12.79.59,0-4.84.24-8,2.48-10.25A4.48,4.48,0,0,1,393.87,360.42Z" style="fill: rgb(38, 50, 56); transform-origin: 384.17px 370.992px;" id="eltosis4fstzf" class="animable"></path><path d="M382.12,371.79a1.17,1.17,0,0,0-.47.78,2.33,2.33,0,0,0,1.3,2.12c.47.23.85.12.09-.72A4.4,4.4,0,0,1,382.12,371.79Z" style="fill: rgb(250, 250, 250); transform-origin: 382.561px 373.292px;" id="elsdu2qulaqsi" class="animable"></path><path d="M382,368.9a1,1,0,0,0-.29.64,3.58,3.58,0,0,0,1.57,2.21c.81.32.35-.52,0-.9A15.15,15.15,0,0,1,382,368.9Z" style="fill: rgb(250, 250, 250); transform-origin: 382.72px 370.361px;" id="elu26of88p9lt" class="animable"></path><path d="M381.64,365.72a.71.71,0,0,0-.36.53c0,.34,1.67,1.46,2.17,1.41s.63-.22,0-.62S381.64,365.72,381.64,365.72Z" style="fill: rgb(250, 250, 250); transform-origin: 382.578px 366.691px;" id="el3slu34t2djc" class="animable"></path><path d="M374.78,349.09c-.16-3.23,2.63-7.92,5.05-9.28s3.41,1.21,4.51,3.65,3,9.39,4,11.32,3.54,2.17,5.49,3.92a4.35,4.35,0,0,1,1.63,2.79c-1-1.55-5.85.31-6.43,3.95-.53,3.3-.2,13.11-3.61,14.83s-6.94.1-9.26-1.84-2.95-6.26-1.94-7.8c.26-.39,1.34,1.16,2.45,2.15s4.23-.12,4.23-3a17.73,17.73,0,0,0-2.37-9.24c-1.76-2.71-7.56-10.64-7.56-10.64S371.9,348.34,374.78,349.09Z" style="fill: rgb(69, 90, 100); transform-origin: 383.215px 360.215px;" id="elolowx19ns4" class="animable"></path><path d="M395.43,361.49c2,3.66,3.18,5.56,3.18,5.56a9.72,9.72,0,0,0-2,.88c-1.4.7-1.93,2.29-3.75,5.52l-4-6.39s-.21-5,2.36-6.46S394.67,360.14,395.43,361.49Z" style="fill: rgb(55, 71, 79); transform-origin: 393.733px 366.665px;" id="elchem3edc7es" class="animable"></path><path d="M392.86,373.45c.72-2.47,1.65-4.86,4.34-6.44,2.45-1.43,1.34,2.83,1.34,2.83Z" style="fill: rgb(38, 50, 56); transform-origin: 395.825px 370.083px;" id="eluecyhqz50u" class="animable"></path><path d="M305.83,387a6,6,0,0,0,5.51,3.92c2.7.14,4.76-.94,7.47-2.09s4.9-2.25,4.9-2.25,1.87-5.61,6.29-6.3a12.11,12.11,0,0,0-10.2-.18C314.27,382.49,305.83,387,305.83,387Z" style="fill: rgb(38, 50, 56); transform-origin: 317.915px 384.997px;" id="eli2azrqbgpt" class="animable"></path><path d="M332.71,379s-.43,9.71-.71,10.56-4,2.13-6.12,1.14c-.1-.19-2.36-9.66-2.36-9.66Z" style="fill: rgb(55, 71, 79); transform-origin: 328.115px 385.03px;" id="elnoh02jiqa4r" class="animable"></path><path d="M305.54,382.82a6.15,6.15,0,0,1,.85.05,2.79,2.79,0,0,0,1.23-.33,13.38,13.38,0,0,0,5.55-4,18.9,18.9,0,0,0,2.43-3.7,18.31,18.31,0,0,0,1.62-4.6c.77-3.68-.42-17.32-.42-17.32a3.42,3.42,0,0,1,3.81,2.44s4.42-6.58,9-6.2c2.55.21,3.14,1.8,3.28,4.94.13,2.9-1.71,10.79-1.91,14.29-.13,2.24,1.11,3.84,1.61,6.27.34,1.66.53,3.46.08,4.26-1.27,1-3.31,1.55-6,1.77-4.28.36-5.56,1-7.44,3.31s-2.19,6-6.8,6.28a6.88,6.88,0,0,1-5.58-2.06,12.43,12.43,0,0,1-1.08-1.32,6,6,0,0,1-1-2.85,1.2,1.2,0,0,1,.38-1.17A.76.76,0,0,1,305.54,382.82Z" style="fill: rgb(69, 90, 100); transform-origin: 318.837px 369.727px;" id="elbxrlweivkmk" class="animable"></path><path d="M305.1,385.48a8,8,0,0,1,.73-6.51c1.13-1.66,2.39,2.83,4.21,2.37C311.5,384,305.1,385.48,305.1,385.48Z" style="fill: rgb(69, 90, 100); transform-origin: 307.487px 382.04px;" id="elhwhwds5aeh9" class="animable"></path><path d="M316.86,224.45s-2,10.54-3.92,21.8c-2.21,12.9-6.92,36.19-6.92,36.19-.07,6.84,10.67,9.78,14.54,7.35.15,5.51,9.19,8.84,12.33,3.59,1.13,5.56,12.54,5.56,13.57.12,3.1,3.32,11.34,1.94,11-5.09,2.59,4,13-.36,13-6.1,0,0-2.48-29.09-7.7-41.95-4.73-11.67-8-10.18-8.75-16.36,0,0-4.9,4-14.35,5.3C328.27,230.87,316.86,224.45,316.86,224.45Z" style="fill: rgb(55, 71, 79); transform-origin: 338.24px 260.783px;" id="elwkcgm04jbj" class="animable"></path><path d="M322.9,238.55l-5.35,52a5.18,5.18,0,0,0,3-.74C320.52,289,322.9,238.55,322.9,238.55Z" style="fill: rgb(38, 50, 56); transform-origin: 320.225px 264.555px;" id="elb81iyuwofci" class="animable"></path><path d="M330.35,295.57a5.19,5.19,0,0,0,2.54-2.19c-.36-1.53,1.28-43-.36-56.16C332.79,260,330.68,286.77,330.35,295.57Z" style="fill: rgb(38, 50, 56); transform-origin: 331.812px 266.395px;" id="eljo3i9uxqb4l" class="animable"></path><path d="M349.39,295.06c.09-12-1.34-37.61-6.73-57.84,2.09,10.75,4.09,35.15,3.8,56.28A5.51,5.51,0,0,0,349.39,295.06Z" style="fill: rgb(38, 50, 56); transform-origin: 346.027px 266.14px;" id="elr65iec0vih8" class="animable"></path><path d="M352.4,241.54c4.4,9.78,5.1,31.77,5.1,46.87a3.85,3.85,0,0,0,3.39,1.55C360,275.83,358.36,251.37,352.4,241.54Z" style="fill: rgb(38, 50, 56); transform-origin: 356.645px 265.756px;" id="elaswy3cupm3" class="animable"></path><path d="M316.67,225.46c10.05,5,26.56,6.66,37.34-1.46a10.38,10.38,0,0,0,1.25,4c-2.09,3-8,6.68-19.16,6.69-15.53,0-20.24-4.87-20.24-4.87Z" style="fill: rgb(38, 50, 56); transform-origin: 335.56px 229.345px;" id="ele93xeor7mjc" class="animable"></path></g><g id="freepik--top--inject-232" class="animable" style="transform-origin: 313.1px 177.124px;"><g id="freepik--Hand--inject-232" class="animable" style="transform-origin: 317.679px 143.385px;"><path d="M327.27,150.9c-1.81-1.45-4.43-2.87-4.89-3.64a2.46,2.46,0,0,1-.12-1.64c.2-1.37.39-1.93.56-3.16s.33-1.9.48-2.92a7.33,7.33,0,0,0-.93-2.6,27.07,27.07,0,0,1-1-2.9c-.37-1.12-.79-2.51-1.23-3.61a2.36,2.36,0,0,0-.91-1.28,2.82,2.82,0,0,1-.46-.23,5.15,5.15,0,0,1-.9-1.21,1.39,1.39,0,0,0-1.66-.45,3.84,3.84,0,0,0-.73-1.65c-.41-.4-.88-.38-1.49,0-.15-.45-.45-1.34-1.14-1.23-.4.06-.66.63-.82,1a5.48,5.48,0,0,0-.47,1.28,9.13,9.13,0,0,0-.15,2.76c0,.38.06.75.11,1.13.33,2.79,1.32,5.56,1,8.32-.37-.9-.67-1.8-1.08-2.76-.76-1.82-2.21-2.31-3-2.06s-.05,1.88.28,4.16c.27,1.91-.48,7.31.4,9.41A10.16,10.16,0,0,0,311,150.4c1.45,1.55,13.6,12,13.6,12Z" style="fill: rgb(255, 189, 167); transform-origin: 317.679px 143.385px;" id="el4j05vj8mmrg" class="animable"></path><path d="M314,125.61a29.87,29.87,0,0,1,.84,3.22,26.57,26.57,0,0,0,.81,3.16,11.94,11.94,0,0,1,1,3.2c0,1.12-.08,2.22-.18,3.33-.11-1.11-.14-2.22-.2-3.3a15.78,15.78,0,0,0-1.08-3.06,17,17,0,0,1-.72-3.26Z" style="fill: rgb(240, 153, 122); transform-origin: 315.325px 132.065px;" id="elwx4uvro319" class="animable"></path><path d="M316.21,127.26c.6,1.74,1.25,3.43,1.9,5.13.16.41.36.84.5,1.29a12.78,12.78,0,0,1,.32,1.36,15.89,15.89,0,0,1,.25,2.75c-.2-.9-.39-1.79-.63-2.67a17.6,17.6,0,0,0-.9-2.55,26.61,26.61,0,0,1-.87-2.61A15.43,15.43,0,0,1,316.21,127.26Z" style="fill: rgb(240, 153, 122); transform-origin: 317.695px 132.525px;" id="elmzlv7wj9cu" class="animable"></path></g><path d="M326.72,175.59l2.24,9.16c4.1,2.84,14,.93,15.27-1.37l-4-10.28Z" style="fill: rgb(255, 189, 167); transform-origin: 335.475px 179.637px;" id="elt0aqzii0b8a" class="animable"></path><path d="M359.87,194.49c.69-5.2,1.41-11.4-6.44-12.28l-1.09-.14c-2.84,0-6.76-.43-14-1-.92,0-6.58-.26-6.58-.26-5,.75-17.8,10.15-19.87,15.07s-1.23,9.47,2.25,12.48a67.35,67.35,0,0,1,.71,12.63,6,6,0,0,0,2.13,4.8c7.52,6.26,30,6.73,37-1.76a5.32,5.32,0,0,0,1.19-3.78C354.72,212.76,358.75,203.05,359.87,194.49Z" style="fill: rgb(55, 71, 79); transform-origin: 335.521px 205.631px;" id="elefx4la5a6wf" class="animable"></path><g id="freepik--Arm--inject-232" class="animable" style="transform-origin: 286.446px 195.456px;"><path d="M324,184.38c-8.54-1.89-9.71.63-23.54,8.61-8.23,4.75-16.31,9.93-16.31,9.93s-19-4.72-24.87-7.45c-1.18-.68-2.31-2.2-2.82-5s-.25-3.65-1.21-5.75-1.56-4.82-2.1-6-2.29-5.13-2.7-5.67c-.68-.91-1.76-.15-1.38,2.13a44.81,44.81,0,0,0,1.5,5.21,11.15,11.15,0,0,1,.29,1.55s-.83-1.27-1.31-2.14a24.66,24.66,0,0,0-3.63-4.34c-1-1.08-2.09.64-1.72,2.22-.56.14-1.23,1.13-.59,2.73a11,11,0,0,0,.86,1.87c-.76.51-.86,1.28-.21,2.88s1.5,3.2,1.5,4.49.84,3.52,1.11,5.12-.21,4.54,1.76,6.46,4.4,1.76,6.69,2.93c5.16,2.6,16,8.35,23.17,11.49,5.73,2.51,7.42,2.06,11.31.17,9.6-4.68,29.5-13.8,29.5-13.8S328.34,192.63,324,184.38Z" style="fill: rgb(255, 189, 167); transform-origin: 284.264px 195.031px;" id="ellwzs4upwbcp" class="animable"></path><path d="M328.29,182c-3.58.57-5.19-1.38-9.14-2.22s-8.34,1-11.5,5.68c-2,3-2.46,4.45-8.39,7.88s-15.2,9.18-15.2,9.18l-14.86-3.66c-3.33.29-5.95,6.88-4.62,10,0,0,11.45,6.17,15.78,8s4.92,1.67,8.2.49,31.26-14.55,31.26-14.55C323.45,201.62,332.93,188.84,328.29,182Z" style="fill: rgb(69, 90, 100); transform-origin: 296.885px 198.91px;" id="elok8w701arkr" class="animable"></path><path d="M244.2,177.68c.2-.09.41-.29.69-.17a1.51,1.51,0,0,1,.55.48,9.71,9.71,0,0,0,.86,1.06,13.46,13.46,0,0,1,1.73,2.19,22.09,22.09,0,0,1,2.1,5.11q-1.19-2.49-2.53-4.87A22.3,22.3,0,0,0,246,179.3a11.74,11.74,0,0,1-.76-1.17,1.5,1.5,0,0,0-.39-.5C244.66,177.51,244.43,177.64,244.2,177.68Z" style="fill: rgb(240, 153, 122); transform-origin: 247.165px 181.911px;" id="eli7v0tzrizal" class="animable"></path><path d="M244.47,182.28a.69.69,0,0,1,.94.16c.23.29.35.54.55.79.36.52.74,1,1.09,1.56a9,9,0,0,1,.83,1.75c.23.6.44,1.2.61,1.82-.32-.56-.62-1.11-.92-1.68a14.88,14.88,0,0,0-.93-1.62c-.36-.51-.72-1-1-1.6-.17-.27-.28-.62-.41-.85A.61.61,0,0,0,244.47,182.28Z" style="fill: rgb(240, 153, 122); transform-origin: 246.48px 185.261px;" id="elsj7kok0fm3g" class="animable"></path><path d="M250.57,180.39a11.15,11.15,0,0,1,.29,1.55c.5.84,1.58,3.14,1.58,3.14s-.51-2.52-.62-3.3a11.06,11.06,0,0,0-1.24-3.09,17.51,17.51,0,0,1-1.48-3.33A51.87,51.87,0,0,0,250.57,180.39Z" style="fill: rgb(240, 153, 122); transform-origin: 250.77px 180.22px;" id="elv2qmt8lr7kf" class="animable"></path></g><path d="M318,148.54a3,3,0,0,1,.79,0,8.19,8.19,0,0,1-1.43-4.18c0-2.52,2.12-4.59,4.41-5.65,4.7-2.14,9-.12,13.74.31a25,25,0,0,1,4.54.8A21.75,21.75,0,0,1,348,144a12.61,12.61,0,0,1,3,3.41c.93,1.67.77,3.2.88,5,.1,1.55.57,3.06.65,4.63a35.29,35.29,0,0,1-.22,5.24c-.7,7.19-18.46,9.46-18.8,14.41l-7.63-12c.08-.61-1-1.8-1.26-2.33a13.53,13.53,0,0,0-2.09-2.52c-.58-.63-1.45-2.06-2.22-2-1,.08-1.68.64-2.8.29a3.71,3.71,0,0,1-2.35-2.27,2.55,2.55,0,0,0,1.39.75,1,1,0,0,0,1.15-.84,1.34,1.34,0,0,0-.27-.78c-.66-1.05-1.64-1.95-1.87-3.17a2.86,2.86,0,0,1,.79-2.5A2.81,2.81,0,0,1,318,148.54Z" style="fill: rgb(177, 102, 104); transform-origin: 333.854px 157.217px;" id="elvfll8yns9xt" class="animable"></path><path d="M318,159.85s-3.34,4-3,4.51a7.25,7.25,0,0,0,2.2,1.13Z" style="fill: rgb(240, 153, 122); transform-origin: 316.488px 162.67px;" id="elkdv30vih4rk" class="animable"></path><path d="M326.29,146.83c-3,1.18-6.26,3.6-8.41,13.64-2.2,10.3-.07,14.12,1.3,15.62.93,1,6.09,1.78,8.87,1.21,3.47-.72,11.1-3.55,15-8.64,4.58-6,6.13-14.34,1.74-18C338.61,145.41,328.84,145.83,326.29,146.83Z" style="fill: rgb(255, 189, 167); transform-origin: 332.163px 161.852px;" id="el710nqqtq54v" class="animable"></path><path d="M319.44,176.3c1.17.75,3.81,1.57,7.72,1.24l-.44-1.95a19.7,19.7,0,0,1-3.52.79A13.23,13.23,0,0,1,319.44,176.3Z" style="fill: rgb(240, 153, 122); transform-origin: 323.3px 176.603px;" id="elmz6lkr377qi" class="animable"></path><path d="M328,146.87a11.55,11.55,0,0,0-3.6,1.4,4.58,4.58,0,0,0-1.39,1.31,3.47,3.47,0,0,0-.47,1.64,4.66,4.66,0,0,0,2.17,4c-.92,1.11-1.55,2.36-.78,3.82s3,3,2.21,5.06c-.23.62-.74,1.15-.78,1.81a1.39,1.39,0,0,0,1.17,1.42,2.13,2.13,0,0,1-.15-1.31c.21-.66.95-.94,1.48-1.38.7-.57.82-1.4,1.35-2.05a4.24,4.24,0,0,1,2-1.2,3.15,3.15,0,0,1,3.2.78c1.09,1.18,1.08,2.65.06,5.28-.47,1.21-1.47,3.29-3.87,3.2a2.34,2.34,0,0,1-1.92-.92,25.94,25.94,0,0,0,.3,4c.41,2.29.75,3.44,2.81,4.09a17.37,17.37,0,0,0,8.12.8c2.07-1.92,5.41-4.3,8.2-6.44,9.17-7.08,11.27-18.91-.05-24.31-.39-.18-.79-.36-1.19-.52a26.32,26.32,0,0,0-17.42-.81Z" style="fill: rgb(177, 102, 104); transform-origin: 339.164px 162.11px;" id="eled9gm91jvh8" class="animable"></path><path d="M330.72,188.53a2.15,2.15,0,0,0-2.54-.63,2.26,2.26,0,0,0-1.14,2.82,3.68,3.68,0,0,1-2.11-1.62,3.72,3.72,0,0,1-.44-2.61,5.24,5.24,0,0,1,1-2c.85-1.15,2-2.1,2.75-3.3a4.58,4.58,0,0,0,.71-3.64c-.27-1.25-.89-2.4-1.1-3.65a4.66,4.66,0,0,1,.81-4.17c3,2.65,12.66,1.43,18.45-1,5.28-2.22,6.8-11.47,7.22-16.5.84,0,2,1.21,2.78,1.63a10.61,10.61,0,0,1,5.37,9.83c-.14,1.63-.66,3.28-.28,4.87.47,1.92,2.15,3.26,3.65,4.55a15.5,15.5,0,0,1,4,4.8A6.67,6.67,0,0,1,370,184c-.48.83-1.19,1.52-1.61,2.39a2.2,2.2,0,0,0,.34,2.65c.79.6,1.94.23,2.8-.27a3.36,3.36,0,0,1-2.34,3.64,4.26,4.26,0,0,1-4.29-1.3,5.85,5.85,0,0,1,.73,7.51c-1,1.35-2.62,2.28-3.2,3.86a3.54,3.54,0,0,0,.41,3.17,4.29,4.29,0,0,0,2.85,1.46,4.88,4.88,0,0,1-3.09.86,4.62,4.62,0,0,1-3.15-1.08c1.07.92,1.34,4.3.95,5.53a18.09,18.09,0,0,1-.9,1.89,2.81,2.81,0,0,0-.26,2,1.33,1.33,0,0,0,1.63.9c-.55,1.35-2.52,1.58-3.77.82a7.71,7.71,0,0,1-2.57-3.48,4.27,4.27,0,0,1-2.74,1.56,5.26,5.26,0,0,1-3.33-.17,4.55,4.55,0,0,1-2.34-3.33,13.77,13.77,0,0,1,.05-4.2,4,4,0,0,1-5.59,3,5.09,5.09,0,0,0-.37-7.16c-1.6-1.33-4-2.46-3.46-5a7.23,7.23,0,0,1,.65-1.67,5.56,5.56,0,0,1-3.56.43A4.09,4.09,0,0,1,331,195.8a4.7,4.7,0,0,1-.23-2.8c.09-.47.27-.92.35-1.39a9,9,0,0,0,.08-1.79A2.27,2.27,0,0,0,330.72,188.53Z" style="fill: rgb(177, 102, 104); transform-origin: 347.988px 185.345px;" id="elhgt5aksk8e" class="animable"></path><g id="eladc0s0i6ul5"><ellipse cx="341.81" cy="155.47" rx="18" ry="26.22" style="fill: rgb(55, 71, 79); transform-origin: 341.81px 155.47px; transform: rotate(-39.66deg);" class="animable"></ellipse></g><path d="M382.83,136c-.2-1.27-4.36-9.78-7.75-11-2.94-1.08-31,13.09-38.44,16.88a6.14,6.14,0,0,0-1.78.92h0a6.14,6.14,0,0,0-1.79,2.1c-2.55,4.83.35,13.06,6.47,18.37,5.86,5.09,12.56,5.64,15.35,1.42h0l.19-.33c.05-.08.11-.16.15-.24s0-.05,0-.08c2.1-3.63,12.52-21.54,13.86-23.85,1.49-2.56,3.85-2.12,4.77-.85s2.63,4.95,2.09,6-4,1.19-4.87,4.23,2,5.28,4.38,5.44c-3-1.51-1.78-4.61.54-4.95s3.92.37,5-3.69S383,137.26,382.83,136Z" style="fill: rgb(69, 90, 100); transform-origin: 357.497px 146.226px;" id="elcjsn358jacl" class="animable"></path><path d="M350.56,168.94c1.08.24,3.88,3.1,4.08,6.05a5.62,5.62,0,0,0,4.08-2.83c-.44-1.9-4.48-4.17-7.87-4.14Z" style="fill: rgb(146, 227, 169); transform-origin: 354.64px 171.505px;" id="elqssjln4irrd" class="animable"></path><g id="elv0yic3rb0h"><path d="M350.56,168.94c1.08.24,3.88,3.1,4.08,6.05a5.62,5.62,0,0,0,4.08-2.83c-.44-1.9-4.48-4.17-7.87-4.14Z" style="opacity: 0.25; transform-origin: 354.64px 171.505px;" class="animable"></path></g><g id="ele94d8zrju"><path d="M350.85,168l-.29.92a2.09,2.09,0,0,1,.62.31,5.85,5.85,0,0,1,4.09,2.52,14.38,14.38,0,0,0,1.72,2.32,4.62,4.62,0,0,0,1.73-1.93C358.28,170.26,354.24,168,350.85,168Z" style="opacity: 0.15; transform-origin: 354.64px 171.035px;" class="animable"></path></g><path d="M348,166.51a20.26,20.26,0,0,0-12.74,1.11A15.76,15.76,0,0,0,330,171.9c2-.14,5.55,1.38,7.54,5,1.48-.71,2.44-2.28,4.44-5.06a10.88,10.88,0,0,1,5.34-3.69Z" style="fill: rgb(146, 227, 169); transform-origin: 339px 171.428px;" id="eltn2113c8ebf" class="animable"></path><g id="ell4gclqgwkrp"><path d="M348,166.51a20.26,20.26,0,0,0-12.74,1.11A15.76,15.76,0,0,0,330,171.9c2-.14,5.55,1.38,7.54,5,1.48-.71,2.44-2.28,4.44-5.06a10.88,10.88,0,0,1,5.34-3.69Z" style="opacity: 0.35; transform-origin: 339px 171.428px;" class="animable"></path></g><g id="elidm6ghgku7"><path d="M347.33,168.15l.71-1.64a20.26,20.26,0,0,0-12.74,1.11,1.4,1.4,0,0,0-.17.09c1.46,1.95,1.82,4.95,1.22,6.26a4.33,4.33,0,0,1,3.33,1c.65-.82,1.36-1.85,2.31-3.17A10.88,10.88,0,0,1,347.33,168.15Z" style="opacity: 0.15; transform-origin: 341.585px 170.463px;" class="animable"></path></g><path d="M341.46,172.81a4.43,4.43,0,0,1,3.31,3c1.48-1,4.07-4,3.16-6.82A6.41,6.41,0,0,0,341.46,172.81Z" style="fill: rgb(146, 227, 169); transform-origin: 344.79px 172.386px;" id="elryq1iqlhmd" class="animable"></path><g id="elakzcwjzt6ol"><path d="M341.46,172.81a4.43,4.43,0,0,1,3.31,3c1.48-1,4.07-4,3.16-6.82A6.41,6.41,0,0,0,341.46,172.81Z" style="opacity: 0.25; transform-origin: 344.79px 172.386px;" class="animable"></path></g><g id="el1cqg51nhmtu"><path d="M341.46,172.81a4.57,4.57,0,0,1,2.44,1.45,5.35,5.35,0,0,1,1.93-2.3,6.28,6.28,0,0,0,2.28-1.85,3.77,3.77,0,0,0-.18-1.09A6.41,6.41,0,0,0,341.46,172.81Z" style="opacity: 0.15; transform-origin: 344.785px 171.626px;" class="animable"></path></g><path d="M351,166.84c1.46-1.16,7.3-4.83,12.12-5.08.09,1.5,1.45,4.23,3.83,4.88.12,1.09-1.46,2.77-4,4.75a7.35,7.35,0,0,0-2.84,4.21s-1.73-.54-3.39-3.39a8,8,0,0,0-5.65-3.65C349.34,168.44,351,166.84,351,166.84Z" style="fill: rgb(146, 227, 169); transform-origin: 358.619px 168.68px;" id="elc0z3b5igqwa" class="animable"></path><g id="els4rcame94tc"><path d="M359.54,166a10.53,10.53,0,0,0-3.12-.14,18.72,18.72,0,0,0-3.34.42c-.55.13-1.1.28-1.64.45a2.74,2.74,0,0,0-1.34.74s-.08.16,0,.19a1.59,1.59,0,0,0,1-.09,4.4,4.4,0,0,0,.58.25l1.23.49c.82.33,1.63.67,2.46.95.58.2,1.49.56,2.08.25.42-.23.21-.57-.13-.72,0,0,0,0,0,0s.49.38.06.5a.86.86,0,0,1-.28,0c-.31-.07-.62-.15-.92-.25-.61-.22-1.21-.5-1.81-.74l-1.83-.72-.55-.24.55-.17c.82-.21,1.66-.39,2.5-.52a22.13,22.13,0,0,1,2.44-.23h1.31c.26,0,.52,0,.77,0s.37.05.17.26a2.92,2.92,0,0,1-.48.44s0,0,0,0a1.38,1.38,0,0,0,.86-.57C360.22,166.18,359.84,166.05,359.54,166Z" style="opacity: 0.2; transform-origin: 355.097px 167.717px;" class="animable"></path></g><path d="M348,166.51c-2.27-1.76-7.87-3.82-10.48-2.93s-4.32,1.77-3.06,2.55a7.23,7.23,0,0,1,2.86,4.13c.64,2.24-.27,3.28-.27,3.28a5.51,5.51,0,0,1,4.73,2.45c.69-2.51,1.72-3.9,3.43-4.78s2.4-1.51,2.68-2.19Z" style="fill: rgb(146, 227, 169); transform-origin: 341.018px 169.678px;" id="ellqtuhlv4nri" class="animable"></path><g id="el0nfwxlek7be"><path d="M349.13,166.88a9.14,9.14,0,0,0-1.18.57,9,9,0,0,0-1.13-.49,14,14,0,0,0-2.09-.63,15.14,15.14,0,0,0-2.13-.28,3.8,3.8,0,0,0-2.13.35c-.09,0-.06.22,0,.27a1.52,1.52,0,0,0,.95.28s0,0,0,0a1.64,1.64,0,0,1-.63-.32,9.89,9.89,0,0,1,4.12.3,14.81,14.81,0,0,1,1.86.57l.61.26-.09.05c-.62.33-1.25.65-1.88,1s-1.21.6-1.83.89a5.25,5.25,0,0,1-1.32.49,4.27,4.27,0,0,1,.63-.57,9.43,9.43,0,0,0,.94-.61s0-.06,0-.06c-.82-.09-1.65.72-2.12,1.3-.08.1,0,.34.12.36a3.16,3.16,0,0,0,1.67-.38c.67-.29,1.34-.6,2-.92s1.32-.64,2-1L348,168a.63.63,0,0,0,.44.08c.09,0,.08-.16,0-.22l-.07-.07a7.15,7.15,0,0,0,.88-.54C349.41,167.19,349.31,166.81,349.13,166.88Z" style="opacity: 0.2; transform-origin: 344.872px 168.317px;" class="animable"></path></g><path d="M348,165.61c-.63,1.13-.63,3.29.31,4.2a1.48,1.48,0,0,0,1.77.43,1.79,1.79,0,0,0,2.37-1.13,4.14,4.14,0,0,0-.31-3.23A2.44,2.44,0,0,0,348,165.61Z" style="fill: rgb(146, 227, 169); transform-origin: 350.102px 167.479px;" id="el82ru5ueo08" class="animable"></path><g id="elhwvuhxrzmcj"><g style="opacity: 0.1; transform-origin: 350.102px 167.479px;" class="animable"><path d="M348,165.61c-.63,1.13-.63,3.29.31,4.2a1.48,1.48,0,0,0,1.77.43,1.79,1.79,0,0,0,2.37-1.13,4.14,4.14,0,0,0-.31-3.23A2.44,2.44,0,0,0,348,165.61Z" id="eln60tahy876f" class="animable" style="transform-origin: 350.102px 167.479px;"></path></g></g></g></g></g><g id="freepik--character-1--inject-232" class="animable" style="transform-origin: 171.756px 254.633px;"><g id="freepik--character--inject-232" class="animable" style="transform-origin: 171.756px 254.633px;"><g id="freepik--bottom--inject-232" class="animable" style="transform-origin: 158.227px 313.653px;"><path d="M145.29,289.55c1,5.54,8.53,29.64,8.53,29.64s-1.63,5.82.16,18.51c1.23,8.67,7.74,35.31,8.39,41.11.16,1.36,1.07,2.75,5.27,2.44,3-.22,6.34-1.65,6.13-4.08,0,0-1.05-15.63-1.05-27.85,0-19.22,0-27,0-34.61,0-9.83-6.45-53.26-4.08-77.29-25.66,5.76-37.86-5.22-37.86-5.22" style="fill: rgb(177, 102, 104); transform-origin: 152.28px 306.747px;" id="elejvn46hp0ye" class="animable"></path><path d="M130.78,232.2c2.16,10.27-10.61,20.62-9.18,41.22,1.29,18.48,1.53,41.08,1.53,41.08s-3.36,6.43-4,19.2c-.4,8.65-1.1,33.84-1.1,33.84,1.69,4,10.83,3.23,10.83,3.23s8.63-35.21,10.75-42.27c3-10,8.2-46.8,8.2-46.8" style="fill: rgb(177, 102, 104); transform-origin: 132.92px 301.515px;" id="elmm2k87vr7rs" class="animable"></path><path d="M116.67,381.42a33.2,33.2,0,0,0,.46,3.39s.42,1.45,3.84,2.07a9.31,9.31,0,0,0,8.12-2.4l.25-1.49s4.07-3.43,5.75-4.49a39.55,39.55,0,0,1,6.08-3.06c2.23-.9,5.28-2.36,6.92-5.67a11.55,11.55,0,0,0,1.22-6.21Z" style="fill: rgb(38, 50, 56); transform-origin: 133.01px 375.299px;" id="elp7r6kz9bx3" class="animable"></path><path d="M127.27,366.67c-.14-4.64-3.93-7.49-6.72-9.58a25.81,25.81,0,0,0-3.19,4.67c-.19,1.6.31,7.4-.08,10.27s-1.2,5.93-.61,9.39c.84,1.29,1.87,2.55,5,2.76a9.11,9.11,0,0,0,7.13-2.23c1.78-1.27,5.52-5.58,8.43-6.66s7.79-2.49,10.71-7.12c2-3.21,1.5-5.64.74-6.53s-7.38-1.34-10.44-.3a62.86,62.86,0,0,0-7.25,3.24l1-5.07A24.25,24.25,0,0,0,127.27,366.67Z" style="fill: rgb(55, 71, 79); transform-origin: 132.904px 370.667px;" id="eldpjmbgvoc3" class="animable"></path><path d="M131,364.58l-.86,6.24,3.78-7.68C132.21,363.91,131,364.58,131,364.58Z" style="fill: rgb(38, 50, 56); transform-origin: 132.03px 366.98px;" id="elqeoqj1t4289" class="animable"></path><path d="M161.28,388.35a28.79,28.79,0,0,0,1.11,3.76,22.42,22.42,0,0,0,6.72,1.23l2-1a17.87,17.87,0,0,1,5.49.35,65.86,65.86,0,0,0,7.34,2c2.95.5,7.28.79,11-.57,3.13-1.15,5.33-2.8,4.86-4.53S161.28,388.35,161.28,388.35Z" style="fill: rgb(38, 50, 56); transform-origin: 180.572px 391.696px;" id="elfnsi1vzzh3r" class="animable"></path><path d="M174.43,365.89c-.31,3.37-.58,8,1,10.34,1.18,1.72,5.42,4.53,7.89,5.81a64.44,64.44,0,0,0,12.42,4.52c3.71.69,5.78,2,2.9,4.18-3.51,2.61-6.14,3.32-11.39,3.25-6.69-.1-7.11-2.45-13.56-2.74s-9.88-.5-11.72-2.12-1.58-3.56-1.23-6.31a28.28,28.28,0,0,0-.06-10.21c-.81-3.86-1-5.47-1-5.47s6.24,2.73,7.52,7.72C168.52,369.14,174.43,365.89,174.43,365.89Z" style="fill: rgb(55, 71, 79); transform-origin: 179.837px 379.942px;" id="elxgt4cjc4wjm" class="animable"></path></g><g id="freepik--top--inject-232" class="animable" style="transform-origin: 171.756px 231.889px;"><path d="M160,151.6c1.82-1.45,4.43-2.87,4.9-3.63a2.56,2.56,0,0,0,.11-1.64c-.2-1.38-.39-1.94-.55-3.17s-.34-1.9-.49-2.92a7.5,7.5,0,0,1,.93-2.59,25.9,25.9,0,0,0,1-2.91c.38-1.12.79-2.51,1.23-3.61a2.3,2.3,0,0,1,.91-1.27,2.82,2.82,0,0,0,.46-.23,5.29,5.29,0,0,0,.9-1.21,1.39,1.39,0,0,1,1.67-.45,3.73,3.73,0,0,1,.72-1.65c.42-.41.88-.38,1.5,0,.14-.46.44-1.35,1.13-1.24.4.06.66.63.83,1a5.22,5.22,0,0,1,.46,1.27,9.14,9.14,0,0,1,.15,2.76c0,.38-.06.76-.1,1.13-.33,2.79-1.33,5.56-1,8.33.38-.9.68-1.81,1.08-2.77.76-1.81,2.22-2.3,3-2.06s.06,1.88-.27,4.16c-.28,1.92.47,7.31-.41,9.42a9.88,9.88,0,0,1-1.83,2.82c-1.45,1.55-13.6,12-13.6,12Z" style="fill: rgb(177, 102, 104); transform-origin: 169.595px 144.105px;" id="elq01xi277ck7" class="animable"></path><path d="M173.29,126.32l-.46,3.28a17,17,0,0,1-.72,3.26,16,16,0,0,0-1.07,3.07c-.06,1.08-.1,2.19-.2,3.29-.1-1.11-.17-2.2-.19-3.33a11.94,11.94,0,0,1,1-3.2,26.59,26.59,0,0,0,.82-3.16A29.65,29.65,0,0,1,173.29,126.32Z" style="fill: rgb(154, 74, 77); transform-origin: 171.97px 132.77px;" id="el6l7sfxmsc7w" class="animable"></path><path d="M171.07,128a17.63,17.63,0,0,1-.57,2.69c-.25.89-.55,1.75-.88,2.62a16.8,16.8,0,0,0-.9,2.55c-.24.87-.42,1.76-.63,2.66a15.89,15.89,0,0,1,.25-2.75,12.65,12.65,0,0,1,.33-1.35c.13-.46.34-.88.49-1.3C169.81,131.4,170.47,129.7,171.07,128Z" style="fill: rgb(154, 74, 77); transform-origin: 169.58px 133.26px;" id="el7r7u2dtn0t5" class="animable"></path><path d="M125.77,190.7c.58-4.76,4-10.44,7.71-9s-.4,17.41-.4,17.41S126,194.17,125.77,190.7Z" style="fill: rgb(38, 50, 56); transform-origin: 130.401px 190.291px;" id="el1ubwdg4mjoh" class="animable"></path><path d="M141.06,173.4l-.81,9h0c-2,.63-1.67,3.48-.48,5.23l-.24,2.64,13.21,1.2,2-15.17Z" style="fill: rgb(177, 102, 104); transform-origin: 146.777px 182.435px;" id="el8hzrvuihwgg" class="animable"></path><path d="M153.81,183.26c-4.2,1-10.65.1-13.44-2.29v-2.5a21.5,21.5,0,0,0,13.74,2.5Z" style="fill: rgb(38, 50, 56); transform-origin: 147.24px 181.066px;" id="elemo7pzxfj86" class="animable"></path><path d="M172.59,202.6c-5-13,3.78-12.3-1-14.12-1.72-.65-17.74-5.22-17.74-5.22l-.27,2.11c-3.08,1.83-8.31,1.35-11.16.53-2.21-.63-3.43-1.83-2.59-3.52l-3-.26c-3.63-.29-6.24,1.13-7.76,5.25a48.57,48.57,0,0,0-2.25,15.06c-.07,6.91,4.15,14.23,4.65,25.53,10,8.95,22.76,10.2,36.75,3.89,0,0,1.09-12.06,1.52-15.49C175.41,213.22,174.72,208.15,172.59,202.6Z" style="fill: rgb(177, 102, 104); transform-origin: 150.483px 208.937px;" id="elju09nko38hj" class="animable"></path><path d="M164.21,186.26c-4.72,2.24-4.62,10.29-3.57,19h-2.55c-1-8.26-1.74-15.61,3.34-19.78Z" style="fill: rgb(38, 50, 56); transform-origin: 160.789px 195.37px;" id="elg0qijqvndhh" class="animable"></path><path d="M163.39,156.09a3.21,3.21,0,0,1,1.21-.41,7.39,7.39,0,0,0,4.32-2.29,8.55,8.55,0,0,1-2.85-1.29,4.56,4.56,0,0,0,2.11-.34,1.61,1.61,0,0,0,.94-1.76c0,.16-1.23.07-1.33,0-1.52-.37-2.7-2.2-3.47-3.45a29.92,29.92,0,0,0-2.73-4.2,11.74,11.74,0,0,0-4.71-3.08,48,48,0,0,0-5-1.24,13.39,13.39,0,0,0-4.19-.45,20.65,20.65,0,0,0-8.9,2.8,17,17,0,0,0-6.11,5.59,20,20,0,0,0-2.61,9.28c-.49,7.51,17.85,14.45,17.37,19.59.89-1.06,1.78-2.13,2.68-3.19l7.48-8.94,3.43-4.1A10.85,10.85,0,0,1,163.39,156.09Z" id="elbpouj7ua8r" class="animable" style="transform-origin: 149.603px 156.201px;"></path><path d="M165.09,159.84s2.84,4.56,2.44,5a7.09,7.09,0,0,1-2.29.91Z" style="fill: rgb(154, 74, 77); transform-origin: 166.329px 162.795px;" id="elsywm12x4wrl" class="animable"></path><path d="M156.43,145.42c2.83,1.56,7.73,4.44,8.73,15.08,1,10.91-1.51,14.63-3,16-1,.93-6.2,1.14-8.88.23-3.34-1.14-10.55-4.94-13.82-10.65-3.85-6.72-4.45-15.55.3-18.87C146.4,142.54,154,144.09,156.43,145.42Z" style="fill: rgb(177, 102, 104); transform-origin: 150.887px 160.689px;" id="eluezctj6lme" class="animable"></path><path d="M154.62,177.09a16.31,16.31,0,0,0,6.93-.26,12.8,12.8,0,0,1-6.83-2Z" style="fill: rgb(154, 74, 77); transform-origin: 158.085px 176.087px;" id="el8bnunsdhnlx" class="animable"></path><path d="M163.24,188.43c8.54-1.89,9.71.63,23.54,8.61,8.22,4.75,16.3,9.93,16.3,9.93s19-4.72,24.88-7.45c1.17-.68,2.31-2.2,2.82-5s.24-3.65,1.2-5.74,1.57-4.83,2.11-6c.6-1.36,2.29-5.14,2.69-5.68.68-.91,1.76-.15,1.39,2.13a46.51,46.51,0,0,1-1.51,5.21,13.87,13.87,0,0,0-.29,1.55s.83-1.27,1.32-2.14a24.24,24.24,0,0,1,3.63-4.34c1-1.08,2.09.64,1.71,2.22.57.14,1.23,1.13.59,2.73a10.74,10.74,0,0,1-.85,1.87c.76.51.85,1.28.21,2.88s-1.5,3.2-1.5,4.49-.85,3.52-1.12,5.12.22,4.54-1.76,6.46-4.39,1.76-6.69,2.93c-5.15,2.6-16,8.35-23.16,11.49-5.73,2.51-7.43,2.06-11.31.17-9.6-4.68-29.51-13.8-29.51-13.8S158.9,196.68,163.24,188.43Z" style="fill: rgb(177, 102, 104); transform-origin: 202.971px 199.081px;" id="eljrp3sn8his" class="animable"></path><path d="M243,181.73c-.22,0-.45-.17-.62,0a1.5,1.5,0,0,0-.39.5,11.81,11.81,0,0,1-.77,1.17,23.9,23.9,0,0,0-1.61,2.18q-1.35,2.39-2.54,4.87a22.12,22.12,0,0,1,2.11-5.11,13.46,13.46,0,0,1,1.73-2.19,12.81,12.81,0,0,0,.86-1.06,1.43,1.43,0,0,1,.55-.48C242.63,181.44,242.84,181.64,243,181.73Z" style="fill: rgb(154, 74, 77); transform-origin: 240.035px 185.997px;" id="ely768w7rzqtn" class="animable"></path><path d="M242.77,186.33a.62.62,0,0,0-.73.33c-.13.23-.24.58-.4.85a17.65,17.65,0,0,1-1,1.6,18,18,0,0,0-.93,1.62c-.29.57-.6,1.12-.91,1.68a15,15,0,0,1,.61-1.82,9.28,9.28,0,0,1,.83-1.75c.35-.53.73-1,1.08-1.56.21-.25.32-.5.55-.79A.7.7,0,0,1,242.77,186.33Z" style="fill: rgb(154, 74, 77); transform-origin: 240.785px 189.321px;" id="el9bpsdhd02pd" class="animable"></path><path d="M236.66,184.44a13.87,13.87,0,0,0-.29,1.55c-.49.84-1.58,3.14-1.58,3.14s.52-2.52.63-3.3a10.76,10.76,0,0,1,1.24-3.09,16.83,16.83,0,0,0,1.47-3.33A49.15,49.15,0,0,1,236.66,184.44Z" style="fill: rgb(154, 74, 77); transform-origin: 236.46px 184.27px;" id="elc2pz81ujp2a" class="animable"></path><path d="M129.91,233c-2.69,3.88-7.8,9.59-10.7,20.86S112.07,306,99.63,326c2.37,11,42.34,35.79,80.22,16.48-3.56-11.64-3.56-43.25-5.71-67.92-2.24-25.79-5.5-37.12-5.5-37.12v-5.57c4.49-3.12,3.2-12.84,3.2-12.84s25.85,18.41,33,17.16c11.32-14.16,5.4-32.7,5.4-32.7L203,204.72l-24.83-12.85s1.71,6.42-14.84,8.73-35.09-4.37-37.53-9.9c-1.88,15.19,2.79,28,4,34.4,1.6,3.39,1.62,5.57.12,7.94" style="fill: rgb(55, 71, 79); transform-origin: 155.709px 270.159px;" id="el9fc5ookihuv" class="animable"></path><path d="M129.79,225.1c2.36,4.85,9.8,9.33,21.68,9.81,11.1.45,17.17-3.06,17.17-3.06v5.57a47.79,47.79,0,0,1-20.56,3.32c-7.46-.62-13.48-2.94-18.17-7.7C131.15,231,130.91,228.26,129.79,225.1Z" id="elpywn46c6z5n" class="animable" style="transform-origin: 149.215px 232.962px;"></path><g id="elof7emkt8syt"><path d="M171.87,224.73a27.26,27.26,0,0,0,0-5.72c-3.76-2.8-9.82-6.3-9.82-6.3Z" style="opacity: 0.2; transform-origin: 167.035px 218.72px;" class="animable"></path></g><path d="M178.76,337.69q-.07-.44-.15-.9c-15.82,7.92-34.66,8.77-52.29,2.24-10.77-4-19.53-10.42-24.21-17.52l-.45.89c4.85,7.09,13.62,13.47,24.36,17.45a69.74,69.74,0,0,0,24.28,4.42A63.91,63.91,0,0,0,178.76,337.69Z" style="fill: rgb(146, 227, 169); transform-origin: 140.21px 332.89px;" id="el6m2b8asimj5" class="animable"></path><path d="M201,235.68l.91.24a40.39,40.39,0,0,0,6.1-32.07l-.86.15A39.4,39.4,0,0,1,201,235.68Z" style="fill: rgb(146, 227, 169); transform-origin: 205.028px 219.885px;" id="eln28vmcxr9s9" class="animable"></path><path d="M155.63,139.68h0a2.83,2.83,0,0,1-3.95,2.69,20.18,20.18,0,0,0-13.76-.45c-3,.92-4.83,2.29-5.95,4h0c-8.64,11.49-17.43,110.67-17.43,110.67,3.53,6.2,15.17,9.34,23.79,9.66,0,0,1.73-22.66,2.29-22.66.27,0,1,22.66,1,22.66a36,36,0,0,0,13.71-2.06l-3-89.53a13.73,13.73,0,0,0,2-4.81c.26-1.31.49-2.46.45-2.4-.57.9-2.16,2.09-4.51-.35s-2.28-6.9,1.11-7.93,5,2.9,5,2.9a15.34,15.34,0,0,0,1.39-4.47,10.86,10.86,0,0,0,5.49-8.07C164.28,142.62,155.63,139.68,155.63,139.68Z" id="eluhdpxswcqx" class="animable" style="transform-origin: 138.942px 202.983px;"></path><g id="elbdrazmsyv7s"><ellipse cx="142.43" cy="156.36" rx="34.58" ry="23.74" style="fill: rgb(55, 71, 79); transform-origin: 142.43px 156.36px; transform: rotate(-50.34deg);" class="animable"></ellipse></g><polyline points="126.97 165.98 115.23 175.64 112.08 222.91 117.58 211.57 124.29 235.72 122.81 184.66 130.06 167.4" style="fill: rgb(146, 227, 169); transform-origin: 121.07px 200.85px;" id="el66i9ruiel0w" class="animable"></polyline><g id="eluxrzdbzxso"><path d="M124.29,235.72l-6.71-24.15-5.51,11.34,3.16-47.25a18.32,18.32,0,0,0,1.22,2.62,16.52,16.52,0,0,0,6.36,6.38Z" style="opacity: 0.2; transform-origin: 118.18px 205.69px;" class="animable"></path></g><path d="M116.39,134.92a26.64,26.64,0,0,1,3.48-10.64,33.9,33.9,0,0,0,2.62-4.8,6.49,6.49,0,0,0,0-5.32c.25.47,1.06.94,1.42,1.38a12.36,12.36,0,0,1,2.54,6c.23,1.81,0,3.69.56,5.44,1,3.36,4.27,5.52,7.11,7.22A59.22,59.22,0,0,0,146,139.06a6.78,6.78,0,0,1,2,1,6.91,6.91,0,0,1,2,2.34c2.85,5.39-.38,14.56-7.2,20.49-6.55,5.67-14,6.29-17.14,1.6l-.21-.37c0-.1-.12-.18-.17-.27a.36.36,0,0,0,0-.09C120,154.82,115.36,144.92,116.39,134.92Z" style="fill: rgb(69, 90, 100); transform-origin: 133.641px 140.89px;" id="elsgk02iw2paa" class="animable"></path><path d="M141.27,157.19c-7.32,7.76-13.72,7.33-16.87,5.15l.83,1.45a.36.36,0,0,1,0,.09c0,.09.12.17.17.27l.21.37c3.13,4.69,10.59,4.07,17.13-1.6,6.83-5.93,10.06-15.1,7.21-20.49a6.91,6.91,0,0,0-2-2.34,6.78,6.78,0,0,0-2-1l-1.11-.37h0C146.54,142.41,148.58,149.43,141.27,157.19Z" style="fill: rgb(146, 227, 169); transform-origin: 137.693px 153.185px;" id="elrpeyikekg3" class="animable"></path></g></g></g><defs>     <filter id="active" height="200%">         <feMorphology in="SourceAlpha" result="DILATED" operator="dilate" radius="2"></feMorphology>                <feFlood flood-color="#32DFEC" flood-opacity="1" result="PINK"></feFlood>        <feComposite in="PINK" in2="DILATED" operator="in" result="OUTLINE"></feComposite>        <feMerge>            <feMergeNode in="OUTLINE"></feMergeNode>            <feMergeNode in="SourceGraphic"></feMergeNode>        </feMerge>    </filter>    <filter id="hover" height="200%">        <feMorphology in="SourceAlpha" result="DILATED" operator="dilate" radius="2"></feMorphology>                <feFlood flood-color="#ff0000" flood-opacity="0.5" result="PINK"></feFlood>        <feComposite in="PINK" in2="DILATED" operator="in" result="OUTLINE"></feComposite>        <feMerge>            <feMergeNode in="OUTLINE"></feMergeNode>            <feMergeNode in="SourceGraphic"></feMergeNode>        </feMerge>            <feColorMatrix type="matrix" values="0   0   0   0   0                0   1   0   0   0                0   0   0   0   0                0   0   0   1   0 "></feColorMatrix>    </filter></defs></svg>